<svg xmlns="http://www.w3.org/2000/svg" xmlns:xlink="http://www.w3.org/1999/xlink" width="255.52" height="255.81" viewBox="0 0 255.52 255.81"><defs><radialGradient id="radial-gradient" cx="52.48" cy="22.76" r="256.15" gradientUnits="userSpaceOnUse"><stop offset="0" stop-color="#e7d298"/><stop offset="1" stop-color="#c4a006"/></radialGradient><radialGradient id="radial-gradient-2" cx="52.48" cy="22.78" r="256.12" xlink:href="#radial-gradient"/><radialGradient id="radial-gradient-3" cx="52.48" cy="22.76" r="256.17" xlink:href="#radial-gradient"/><radialGradient id="radial-gradient-4" cx="52.48" cy="22.77" r="256.15" xlink:href="#radial-gradient"/><radialGradient id="radial-gradient-5" cx="52.48" cy="22.78" r="256.12" xlink:href="#radial-gradient"/><radialGradient id="radial-gradient-6" cx="52.48" cy="22.77" r="256.14" xlink:href="#radial-gradient"/><radialGradient id="radial-gradient-7" cx="52.48" cy="22.77" r="256.13" xlink:href="#radial-gradient"/><radialGradient id="radial-gradient-8" cx="52.48" cy="22.77" r="256.13" xlink:href="#radial-gradient"/><radialGradient id="radial-gradient-9" cx="52.48" cy="22.78" r="256.12" xlink:href="#radial-gradient"/><radialGradient id="radial-gradient-10" cx="52.48" cy="22.78" r="256.13" xlink:href="#radial-gradient"/><radialGradient id="radial-gradient-11" cx="52.48" cy="22.77" r="256.13" xlink:href="#radial-gradient"/><radialGradient id="radial-gradient-12" cx="52.48" cy="22.79" r="256.11" xlink:href="#radial-gradient"/><radialGradient id="radial-gradient-13" cx="52.48" cy="22.78" r="256.11" xlink:href="#radial-gradient"/><radialGradient id="radial-gradient-14" cx="52.48" cy="22.77" r="256.13" xlink:href="#radial-gradient"/><radialGradient id="radial-gradient-15" cx="52.48" cy="22.79" r="256.1" xlink:href="#radial-gradient"/><radialGradient id="radial-gradient-16" cx="52.48" cy="22.79" r="256.11" xlink:href="#radial-gradient"/><radialGradient id="radial-gradient-17" cx="52.48" cy="22.76" r="256.14" xlink:href="#radial-gradient"/><radialGradient id="radial-gradient-18" cx="52.46" cy="22.77" r="256.15" xlink:href="#radial-gradient"/><radialGradient id="radial-gradient-19" cx="52.45" cy="22.77" r="256.15" xlink:href="#radial-gradient"/><radialGradient id="radial-gradient-20" cx="52.48" cy="22.78" r="256.12" xlink:href="#radial-gradient"/><radialGradient id="radial-gradient-21" cx="52.46" cy="22.75" r="256.16" xlink:href="#radial-gradient"/><radialGradient id="radial-gradient-22" cx="52.47" cy="22.77" r="256.14" xlink:href="#radial-gradient"/><radialGradient id="radial-gradient-23" cx="52.46" cy="22.77" r="256.14" xlink:href="#radial-gradient"/><radialGradient id="radial-gradient-24" cx="52.55" cy="22.77" r="256.07" xlink:href="#radial-gradient"/><radialGradient id="radial-gradient-25" cx="52.53" cy="22.76" r="256.09" xlink:href="#radial-gradient"/><radialGradient id="radial-gradient-26" cx="52.48" cy="22.78" r="256.13" gradientUnits="userSpaceOnUse"><stop offset="0" stop-color="#efe0ba"/><stop offset="1" stop-color="#c4a006"/></radialGradient><radialGradient id="radial-gradient-27" cx="52.46" cy="22.85" r="256.02" xlink:href="#radial-gradient-26"/><radialGradient id="radial-gradient-28" cx="52.48" cy="22.78" r="256.12" xlink:href="#radial-gradient"/><radialGradient id="radial-gradient-29" cx="52.48" cy="22.78" r="256.12" xlink:href="#radial-gradient-26"/><radialGradient id="radial-gradient-30" cx="52.47" cy="22.79" r="256.1" xlink:href="#radial-gradient"/><radialGradient id="radial-gradient-31" cx="52.48" cy="22.79" r="256.11" xlink:href="#radial-gradient-26"/><radialGradient id="radial-gradient-32" cx="52.48" cy="22.79" r="256.1" xlink:href="#radial-gradient"/><radialGradient id="radial-gradient-33" cx="52.48" cy="22.78" r="256.11" xlink:href="#radial-gradient-26"/><radialGradient id="radial-gradient-34" cx="52.47" cy="22.72" r="256.2" xlink:href="#radial-gradient"/><radialGradient id="radial-gradient-35" cx="52.47" cy="22.72" r="256.2" xlink:href="#radial-gradient-26"/><radialGradient id="radial-gradient-36" cx="52.48" cy="22.74" r="256.17" xlink:href="#radial-gradient"/><radialGradient id="radial-gradient-37" cx="52.48" cy="22.74" r="256.18" xlink:href="#radial-gradient-26"/><radialGradient id="radial-gradient-38" cx="52.46" cy="22.66" r="256.3" xlink:href="#radial-gradient"/><radialGradient id="radial-gradient-39" cx="52.46" cy="22.66" r="256.31" xlink:href="#radial-gradient"/><radialGradient id="radial-gradient-40" cx="52.46" cy="22.66" r="256.31" xlink:href="#radial-gradient-26"/><radialGradient id="radial-gradient-41" cx="52.49" cy="22.72" r="256.18" xlink:href="#radial-gradient"/><radialGradient id="radial-gradient-42" cx="52.48" cy="22.73" r="256.18" xlink:href="#radial-gradient-26"/><radialGradient id="radial-gradient-43" cx="52.49" cy="22.84" r="256.04" xlink:href="#radial-gradient"/><radialGradient id="radial-gradient-44" cx="52.48" cy="22.85" r="256.03" xlink:href="#radial-gradient-26"/><radialGradient id="radial-gradient-45" cx="52.49" cy="22.77" r="256.12" xlink:href="#radial-gradient"/><radialGradient id="radial-gradient-46" cx="52.49" cy="22.78" r="256.11" xlink:href="#radial-gradient-26"/><radialGradient id="radial-gradient-47" cx="52.47" cy="22.75" r="256.16" xlink:href="#radial-gradient"/><radialGradient id="radial-gradient-48" cx="52.47" cy="22.76" r="256.15" xlink:href="#radial-gradient-26"/><radialGradient id="radial-gradient-49" cx="52.48" cy="22.77" r="256.13" xlink:href="#radial-gradient"/><radialGradient id="radial-gradient-50" cx="52.48" cy="22.78" r="256.12" xlink:href="#radial-gradient-26"/><radialGradient id="radial-gradient-51" cx="52.5" cy="22.79" r="256.09" xlink:href="#radial-gradient"/><radialGradient id="radial-gradient-52" cx="52.5" cy="22.8" r="256.08" xlink:href="#radial-gradient-26"/><radialGradient id="radial-gradient-53" cx="52.43" cy="22.79" r="256.16" xlink:href="#radial-gradient"/><radialGradient id="radial-gradient-54" cx="52.42" cy="22.78" r="256.17" xlink:href="#radial-gradient-26"/><radialGradient id="radial-gradient-55" cx="52.48" cy="22.78" r="256.13" xlink:href="#radial-gradient"/><radialGradient id="radial-gradient-56" cx="52.48" cy="22.77" r="256.14" xlink:href="#radial-gradient"/><radialGradient id="radial-gradient-57" cx="52.48" cy="22.77" r="256.16" xlink:href="#radial-gradient"/><radialGradient id="radial-gradient-58" cx="52.48" cy="22.79" r="256.1" xlink:href="#radial-gradient"/><radialGradient id="radial-gradient-59" cx="52.47" cy="22.79" r="256.12" xlink:href="#radial-gradient"/><radialGradient id="radial-gradient-60" cx="52.43" cy="22.78" r="256.18" xlink:href="#radial-gradient"/><radialGradient id="radial-gradient-61" cx="52.46" cy="22.77" r="256.16" xlink:href="#radial-gradient"/><radialGradient id="radial-gradient-62" cx="52.46" cy="22.77" r="256.15" xlink:href="#radial-gradient"/><radialGradient id="radial-gradient-63" cx="52.75" cy="22.52" r="255.8" xlink:href="#radial-gradient"/><radialGradient id="radial-gradient-64" cx="52.74" cy="22.52" r="255.81" xlink:href="#radial-gradient"/><radialGradient id="radial-gradient-65" cx="52.48" cy="22.77" r="256.13" xlink:href="#radial-gradient"/><radialGradient id="radial-gradient-66" cx="52.47" cy="22.77" r="256.15" xlink:href="#radial-gradient"/><radialGradient id="radial-gradient-67" cx="52.48" cy="22.71" r="256.27" xlink:href="#radial-gradient-26"/><radialGradient id="radial-gradient-68" cx="52.53" cy="22.28" r="257.97" xlink:href="#radial-gradient-26"/><radialGradient id="radial-gradient-69" cx="52.32" cy="22.76" r="256.38" xlink:href="#radial-gradient-26"/><radialGradient id="radial-gradient-70" cx="52.5" cy="22.74" r="256.11" xlink:href="#radial-gradient-26"/><radialGradient id="radial-gradient-71" cx="52.48" cy="22.78" r="256.13" xlink:href="#radial-gradient-26"/><radialGradient id="radial-gradient-72" cx="52.48" cy="22.78" r="256.11" xlink:href="#radial-gradient"/><radialGradient id="radial-gradient-73" cx="52.48" cy="22.78" r="256.11" xlink:href="#radial-gradient-26"/><radialGradient id="radial-gradient-74" cx="52.48" cy="22.78" r="256.1" xlink:href="#radial-gradient"/><radialGradient id="radial-gradient-75" cx="52.48" cy="22.78" r="256.1" xlink:href="#radial-gradient-26"/><radialGradient id="radial-gradient-76" cx="52.48" cy="22.77" r="256.12" xlink:href="#radial-gradient"/><radialGradient id="radial-gradient-77" cx="52.48" cy="22.78" r="256.12" xlink:href="#radial-gradient-26"/><radialGradient id="radial-gradient-78" cx="52.48" cy="22.77" r="256.16" xlink:href="#radial-gradient"/><radialGradient id="radial-gradient-79" cx="52.48" cy="22.77" r="256.15" xlink:href="#radial-gradient-26"/><radialGradient id="radial-gradient-80" cx="52.48" cy="22.78" r="256.11" xlink:href="#radial-gradient"/><radialGradient id="radial-gradient-81" cx="52.48" cy="22.78" r="256.11" xlink:href="#radial-gradient-26"/><radialGradient id="radial-gradient-82" cx="52.48" cy="22.77" r="256.13" xlink:href="#radial-gradient"/><radialGradient id="radial-gradient-83" cx="52.48" cy="22.78" r="256.12" xlink:href="#radial-gradient-26"/><radialGradient id="radial-gradient-84" cx="52.47" cy="22.77" r="256.14" xlink:href="#radial-gradient"/><radialGradient id="radial-gradient-85" cx="52.48" cy="22.77" r="256.15" xlink:href="#radial-gradient"/><radialGradient id="radial-gradient-86" cx="52.47" cy="22.77" r="256.14" xlink:href="#radial-gradient-26"/><radialGradient id="radial-gradient-87" cx="52.48" cy="22.78" r="256.11" xlink:href="#radial-gradient"/><radialGradient id="radial-gradient-88" cx="52.48" cy="22.79" r="256.09" xlink:href="#radial-gradient-26"/><radialGradient id="radial-gradient-89" cx="52.48" cy="22.75" r="256.19" xlink:href="#radial-gradient"/><radialGradient id="radial-gradient-90" cx="52.48" cy="22.76" r="256.17" xlink:href="#radial-gradient-26"/><radialGradient id="radial-gradient-91" cx="52.48" cy="22.78" r="256.12" xlink:href="#radial-gradient"/><radialGradient id="radial-gradient-92" cx="52.48" cy="22.78" r="256.13" xlink:href="#radial-gradient-26"/><radialGradient id="radial-gradient-93" cx="52.47" cy="23.19" r="255.24" xlink:href="#radial-gradient"/><radialGradient id="radial-gradient-94" cx="52.47" cy="23.2" r="255.22" xlink:href="#radial-gradient"/><radialGradient id="radial-gradient-95" cx="52.47" cy="23.2" r="255.22" xlink:href="#radial-gradient-26"/><radialGradient id="radial-gradient-96" cx="52.45" cy="22.79" r="256.15" xlink:href="#radial-gradient"/><radialGradient id="radial-gradient-97" cx="52.44" cy="22.78" r="256.16" xlink:href="#radial-gradient-26"/><radialGradient id="radial-gradient-98" cx="52.51" cy="22.78" r="256.09" xlink:href="#radial-gradient"/><radialGradient id="radial-gradient-99" cx="52.52" cy="22.78" r="256.08" xlink:href="#radial-gradient-26"/><radialGradient id="radial-gradient-100" cx="52.54" cy="22.77" r="256.05" xlink:href="#radial-gradient"/><radialGradient id="radial-gradient-101" cx="52.55" cy="22.77" r="256.04" xlink:href="#radial-gradient-26"/><radialGradient id="radial-gradient-102" cx="52.53" cy="22.78" r="256.05" xlink:href="#radial-gradient"/><radialGradient id="radial-gradient-103" cx="52.52" cy="22.78" r="256.06" xlink:href="#radial-gradient-26"/><radialGradient id="radial-gradient-104" cx="52.47" cy="22.77" r="256.13" xlink:href="#radial-gradient"/><radialGradient id="radial-gradient-105" cx="52.47" cy="22.77" r="256.14" xlink:href="#radial-gradient-26"/><radialGradient id="radial-gradient-106" cx="52.38" cy="22.43" r="256.58" xlink:href="#radial-gradient"/><radialGradient id="radial-gradient-107" cx="52.37" cy="22.43" r="256.58" xlink:href="#radial-gradient-26"/><radialGradient id="radial-gradient-108" cx="52.46" cy="22.78" r="256.16" xlink:href="#radial-gradient"/><radialGradient id="radial-gradient-109" cx="52.45" cy="22.78" r="256.16" xlink:href="#radial-gradient-26"/><radialGradient id="radial-gradient-110" cx="52.49" cy="22.78" r="256.1" xlink:href="#radial-gradient"/><radialGradient id="radial-gradient-111" cx="52.49" cy="22.78" r="256.1" xlink:href="#radial-gradient-26"/><radialGradient id="radial-gradient-112" cx="53.57" cy="22.5" r="254.65" xlink:href="#radial-gradient"/><radialGradient id="radial-gradient-113" cx="53.57" cy="22.5" r="254.66" xlink:href="#radial-gradient"/><radialGradient id="radial-gradient-114" cx="53.57" cy="22.5" r="254.65" xlink:href="#radial-gradient-26"/><radialGradient id="radial-gradient-115" cx="52.49" cy="22.79" r="256.09" xlink:href="#radial-gradient"/><radialGradient id="radial-gradient-116" cx="52.49" cy="22.79" r="256.08" xlink:href="#radial-gradient-26"/><radialGradient id="radial-gradient-117" cx="52.54" cy="22.85" r="255.95" xlink:href="#radial-gradient"/><radialGradient id="radial-gradient-118" cx="52.55" cy="22.85" r="255.94" xlink:href="#radial-gradient-26"/><radialGradient id="radial-gradient-119" cx="52.48" cy="22.78" r="256.12" xlink:href="#radial-gradient"/><radialGradient id="radial-gradient-120" cx="52.48" cy="22.78" r="256.11" xlink:href="#radial-gradient-26"/><radialGradient id="radial-gradient-121" cx="52.32" cy="22.78" r="256.42" xlink:href="#radial-gradient"/><radialGradient id="radial-gradient-122" cx="52.32" cy="22.78" r="256.43" xlink:href="#radial-gradient"/><radialGradient id="radial-gradient-123" cx="52.32" cy="22.79" r="256.42" xlink:href="#radial-gradient-26"/><radialGradient id="radial-gradient-124" cx="52.47" cy="22.78" r="256.14" xlink:href="#radial-gradient"/><radialGradient id="radial-gradient-125" cx="52.48" cy="22.78" r="256.12" xlink:href="#radial-gradient-26"/><radialGradient id="radial-gradient-126" cx="52.47" cy="22.78" r="256.13" xlink:href="#radial-gradient"/><radialGradient id="radial-gradient-127" cx="52.48" cy="22.78" r="256.11" xlink:href="#radial-gradient-26"/><radialGradient id="radial-gradient-128" cx="52.53" cy="23.07" r="255.44" xlink:href="#radial-gradient"/><radialGradient id="radial-gradient-129" cx="52.53" cy="23.07" r="255.45" xlink:href="#radial-gradient"/><radialGradient id="radial-gradient-130" cx="52.53" cy="23.08" r="255.44" xlink:href="#radial-gradient-26"/><radialGradient id="radial-gradient-131" cx="92.52" cy="96.13" r="123.53" gradientUnits="userSpaceOnUse"><stop offset="0" stop-color="#0fb3e8"/><stop offset="0.52" stop-color="#0781bd"/><stop offset="1" stop-color="#005699"/></radialGradient><radialGradient id="radial-gradient-132" cx="95.49" cy="95.61" r="137.05" gradientUnits="userSpaceOnUse"><stop offset="0" stop-color="#cdd5e9"/><stop offset="0.08" stop-color="#c4cee5"/><stop offset="0.49" stop-color="#9aaed2"/><stop offset="0.81" stop-color="#809ac6"/><stop offset="1" stop-color="#7693c2"/></radialGradient><radialGradient id="radial-gradient-133" cx="95.49" cy="95.61" r="137.05" xlink:href="#radial-gradient-132"/><radialGradient id="radial-gradient-134" cx="95.49" cy="95.62" r="137.05" xlink:href="#radial-gradient-132"/><radialGradient id="radial-gradient-135" cx="95.49" cy="95.61" r="137.05" xlink:href="#radial-gradient-132"/><radialGradient id="radial-gradient-136" cx="95.49" cy="95.62" r="137.05" xlink:href="#radial-gradient-132"/><radialGradient id="radial-gradient-137" cx="95.49" cy="98.05" r="135.86" xlink:href="#radial-gradient-132"/><radialGradient id="radial-gradient-138" cx="95.49" cy="95.62" r="137.05" xlink:href="#radial-gradient-132"/><radialGradient id="New_Gradient_Swatch_1" cx="127.76" cy="127.9" fx="108.3374934922638" fy="77.66677045469586" r="87.92" gradientTransform="translate(0.82 -0.82) rotate(0.37)" gradientUnits="userSpaceOnUse"><stop offset="0" stop-color="#0fb3e8"/><stop offset="0.24" stop-color="#148eb6"/><stop offset="0.76" stop-color="#1f3f4b"/><stop offset="1" stop-color="#231f20"/></radialGradient></defs><title>nsf_logo</title><g style="isolation:isolate"><g id="Layer_2" data-name="Layer 2"><g id="Layer_1-2" data-name="Layer 1"><path d="M170.67,211c.86,2.67,1.53,6.11,4.28,7.29l1.7.47c3.43-.9,6.44-2.82,9.27-4.65,2.86-2.32,6.55-5.36,7.41-8.76.1-2.52-1.88-4.18-3.72-5.68a98,98,0,0,0-20.78-11.17l-.34.24C168,196.18,169.54,203.48,170.67,211Z" fill="none"/><path d="M216.79,156.14c2.49,1.28,5.4,3.24,8.18,2.14l1.52-.88a28.39,28.39,0,0,0,2.94-8.3c0-.24.07-.47.09-.71.39-3.75,1.08-9-.86-12.29-1.71-1.85-4.29-1.62-6.65-1.39-.9.16-1.8.33-2.7.52a142.07,142.07,0,0,1-15,11.43C208.19,150.07,212.53,153,216.79,156.14Z" fill="none"/><path d="M199,188.37c1.82,2.14,3.75,5.07,6.74,5.1l1.75-.22a30.54,30.54,0,0,0,6.4-7.29l.18-.3c1.79-3.33,4.45-7.95,3.9-11.7-.87-2.36-3.34-3.13-5.61-3.82a97.85,97.85,0,0,0-23.29-2.36l-.59.9C190.93,175.77,195.13,181.92,199,188.37Z" fill="none"/><path d="M55.23,149.18c-2.17,2-4.12,4.47-6.22,6.82-.68,2.29-4.67,4.44-2,6.87a71.35,71.35,0,0,0,17,.89A72.29,72.29,0,0,1,58.33,151C57.29,150.43,56.25,149.81,55.23,149.18Z" fill="none"/><path d="M172.94,185.45c3.33,2,7.28,3.06,11.21,4.45,2.38-.25,5.9,2.61,7.13-.75a71.19,71.19,0,0,0-5.8-16.29A73.59,73.59,0,0,1,172.94,185.45Z" fill="none"/><path d="M119.28,200.57c1,3.73,3,7.26,4.76,11,1.85,1.5,2.32,6,5.56,4.51a70.82,70.82,0,0,0,7.42-15.6,72.74,72.74,0,0,1-9.26.58A74.14,74.14,0,0,1,119.28,200.57Z" fill="none"/><path d="M70.33,173.23c-1.91,3.29-3,7.15-4.35,11,.25,2.37-2.6,5.89.75,7.12a70.92,70.92,0,0,0,16.12-5.71A73.63,73.63,0,0,1,70.33,173.23Z" fill="none"/><path d="M99.17,216.81C97.88,219.3,95.93,222.2,97,225l.87,1.52c3.27,1.92,7,2.67,10.52,3.42,3.63.37,8.25.77,11.2-1,1.86-1.71,1.62-4.29,1.39-6.65a97.87,97.87,0,0,0-6.75-22.48l-1-.2C107.67,204.56,103.61,210.76,99.17,216.81Z" fill="none"/><path d="M34.8,135.15c-2.79-.24-6.23-.93-8.37,1.16l-1.08,1.38c-.56,4.1.37,8.19,1,12,1,3.29,2.39,7.07,4.87,8.93,2.29,1.06,4.58-.14,6.68-1.26A100.07,100.07,0,0,0,51.6,146.88a139.9,139.9,0,0,1-15-11.29Z" fill="none"/><path d="M44.72,170.33c-2.67.85-6.11,1.52-7.29,4.28L37,176.3c1,3.81,3.25,7.1,5.24,10.2,2.27,2.78,5.16,6.11,8.37,6.92,2.52.1,4.18-1.88,5.68-3.72a97.33,97.33,0,0,0,11.07-20.55c-.23-.34-.47-.69-.69-1C59.27,167.7,52.08,169.21,44.72,170.33Z" fill="none"/><path d="M62.09,153.11a70.35,70.35,0,0,0,131.33,0,139.47,139.47,0,0,1-131.33,0Z" fill="none"/><path d="M135.64,221c-.23,2.79-.93,6.23,1.16,8.37l1.39,1.08c3.55.49,7.11-.15,10.45-.77,3.55-1.05,8.17-2.44,10.29-5.28,1.06-2.29-.15-4.58-1.26-6.67a98.33,98.33,0,0,0-14.88-18.22l-.68.13C138.82,206.37,137.44,213.69,135.64,221Z" fill="none"/><path d="M67.51,199.12c-2.14,1.82-5.06,3.75-5.1,6.75l.22,1.74c2.41,3.18,5.81,5.37,8.87,7.49,3.06,1.63,6.75,3.37,9.84,2.92,2.37-.88,3.14-3.34,3.83-5.62A97.65,97.65,0,0,0,87.53,189l-.53-.35C80,191.1,73.9,195.26,67.51,199.12Z" fill="none"/><path d="M191.72,163.44c3.79.52,7.8,0,11.91-.2,2.1-1.13,6.44.17,6.3-3.41A72.37,72.37,0,0,0,200.57,149c-1.12.69-2.25,1.36-3.39,2A72.45,72.45,0,0,1,191.72,163.44Z" fill="none"/><path d="M92.06,203.65c1.14,2.1-.16,6.43,3.42,6.29a71.67,71.67,0,0,0,12.77-11.51,73,73,0,0,1-16.38-6.76C91.34,195.48,91.83,199.51,92.06,203.65Z" fill="none"/><path d="M156.35,206.66c2.29.69,4.44,4.67,6.86,2a71,71,0,0,0,.88-17.28,73.11,73.11,0,0,1-16.37,6.89C150,201.39,153.25,203.9,156.35,206.66Z" fill="none"/><path d="M25.12,145c.18.85.38,1.71.64,2.57.2.65.4,1.36.63,2.09-.67-3.77-1.6-7.86-1-12l1.08-1.38c2.14-2.09,5.58-1.4,8.37-1.16l1.81.44a140.29,140.29,0,0,1-18.35-19.24l-.21.47c-4.29,6.49-10.94,8.12-18,7.88,0,2.09,0,4.59,0,6.32,7.93-.46,16.13,2.26,19.77,10.39.73,1.92,1.42,3.87,2.05,5.83-.07-.62-.15-1.24-.24-1.87Z" fill="url(#radial-gradient)"/><path d="M39.7,183.21c.5.72,1,1.44,1.58,2.13l.93,1.16c-2-3.1-4.24-6.39-5.24-10.2l.46-1.69c1.18-2.76,4.62-3.43,7.29-4.28,7.36-1.12,14.55-2.63,21.92-2.22Q65.23,166,64,163.76a71.35,71.35,0,0,1-17-.89c-2.63-2.43,1.36-4.58,2-6.87,2.1-2.35,4.05-4.77,6.22-6.82-1.23-.74-2.43-1.51-3.63-2.3a100.07,100.07,0,0,1-13.66,10.44c-2.1,1.12-4.39,2.32-6.68,1.26-2.48-1.86-3.86-5.64-4.87-8.93.08.44.15.88.22,1.31l-3.43,1c-.4-1.6-.86-3.17-1.36-4.73a94,94,0,0,1,.42,12.56c-1.48,7.65-7,11.69-13.64,14.19.78,1.94,1.73,4.25,2.39,5.85,7.16-3.47,15.77-4.08,22.24,2q2.3,2.4,4.43,5c-.35-.64-.71-1.28-1.08-1.91Z" fill="url(#radial-gradient-2)"/><path d="M26.61,151c-.07-.43-.14-.87-.22-1.31-.23-.73-.43-1.44-.63-2.09-.26-.86-.46-1.72-.64-2.57l-3.54.38c.09.63.17,1.25.24,1.87.5,1.56,1,3.13,1.36,4.73Z" fill="url(#radial-gradient-3)"/><path d="M26.61,151c-.07-.43-.14-.87-.22-1.31-.23-.73-.43-1.44-.63-2.09-.26-.86-.46-1.72-.64-2.57l-3.54.38c.09.63.17,1.25.24,1.87.5,1.56,1,3.13,1.36,4.73Z" fill="url(#radial-gradient-4)"/><path d="M67.38,212.75c.74.48,1.49.94,2.28,1.36l1.84,1c-3.06-2.12-6.46-4.31-8.87-7.49l-.22-1.74c0-3,3-4.93,5.1-6.75,6.39-3.86,12.49-8,19.49-10.46q-2.13-1.42-4.15-3a70.92,70.92,0,0,1-16.12,5.71c-3.35-1.23-.5-4.75-.75-7.12,1.36-3.87,2.44-7.73,4.35-11q-1.58-2-3-4.08A97.33,97.33,0,0,1,56.26,189.7c-1.5,1.84-3.16,3.82-5.68,3.72-3.21-.81-6.1-4.14-8.37-6.92.35.53.68,1.05,1,1.57l-2.78,2.24c-.89-1.19-1.82-2.35-2.77-3.48A95.63,95.63,0,0,1,42.71,198c1.56,7.62-2,13.47-7.17,18.32,1.46,1.49,3.22,3.26,4.45,4.49,5.28-5.94,13-9.81,21.32-6.64,1.86.83,3.69,1.7,5.5,2.63-.54-.44-1.09-.87-1.66-1.29Z" fill="url(#radial-gradient-5)"/><path d="M43.21,188.07c-.32-.52-.65-1-1-1.57l-.93-1.16c-.57-.69-1.08-1.41-1.58-2.13l-3.12,1.71c.37.63.73,1.27,1.08,1.91,1,1.13,1.88,2.29,2.77,3.48Z" fill="url(#radial-gradient-6)"/><path d="M43.21,188.07c-.32-.52-.65-1-1-1.57l-.93-1.16c-.57-.69-1.08-1.41-1.58-2.13l-3.12,1.71c.37.63.73,1.27,1.08,1.91,1,1.13,1.88,2.29,2.77,3.48Z" fill="url(#radial-gradient-7)"/><path d="M104.73,229.42c.85.16,1.72.3,2.61.4l1.09.11c-3.49-.75-7.25-1.5-10.52-3.42L97,225c-1.11-2.79.84-5.69,2.13-8.18,4.44-6.05,8.5-12.25,14.08-17.19q-2.53-.51-5-1.19a71.67,71.67,0,0,1-12.77,11.51c-3.58.14-2.28-4.19-3.42-6.29-.23-4.14-.72-8.17-.19-12-1.48-.84-2.93-1.72-4.34-2.66a97.65,97.65,0,0,1-2.36,23.39c-.69,2.28-1.46,4.74-3.83,5.62-3.09.45-6.78-1.29-9.84-2.92l1.4,1-1.71,3.13c-1.44-.86-2.9-1.66-4.38-2.42a94.29,94.29,0,0,1,9,8.46c4.37,6.44,3.32,13.21.39,19.66,1.92.83,4.23,1.79,5.83,2.45,2.61-7.51,8.26-14,17.16-14.29,2.28.06,4.55.18,6.82.39-.76-.23-1.52-.45-2.29-.65Z" fill="url(#radial-gradient-8)"/><path d="M72.9,216.1l-1.4-1-1.84-1c-.79-.42-1.54-.88-2.28-1.36l-2.23,2.77c.57.42,1.12.85,1.66,1.29,1.48.76,2.94,1.56,4.38,2.42Z" fill="url(#radial-gradient-9)"/><path d="M72.9,216.1l-1.4-1-1.84-1c-.79-.42-1.54-.88-2.28-1.36l-2.23,2.77c.57.42,1.12.85,1.66,1.29,1.48.76,2.94,1.56,4.38,2.42Z" fill="url(#radial-gradient-10)"/><path d="M145.33,230.55c.86-.18,1.72-.38,2.57-.64l.74-.22c-3.34.62-6.9,1.26-10.45.77l-1.39-1.08c-2.09-2.14-1.39-5.58-1.16-8.37,1.8-7.32,3.18-14.64,6.47-21.36-1.68.34-3.38.62-5.09.83a70.82,70.82,0,0,1-7.42,15.6c-3.24,1.5-3.71-3-5.56-4.51-1.8-3.74-3.79-7.27-4.76-11q-2.53-.28-5-.75A97.87,97.87,0,0,1,121,222.3c.23,2.36.47,4.94-1.39,6.65-2.95,1.75-7.57,1.35-11.2,1,.75.16,1.49.32,2.22.5l-.39,3.55c-1.41-.21-2.82-.37-4.24-.5a95.05,95.05,0,0,1,11.29,4.27c6.5,4.29,8.12,10.95,7.89,18,2.09,0,4.58,0,6.32,0-.46-7.94,2.26-16.13,10.38-19.77q3.22-1.23,6.52-2.27c-.9.09-1.8.19-2.71.32Z" fill="url(#radial-gradient-11)"/><path d="M110.65,230.43c-.73-.18-1.47-.34-2.22-.5l-1.09-.11c-.89-.1-1.76-.24-2.61-.4l-1,3.41c.77.2,1.53.42,2.29.65,1.42.13,2.83.29,4.24.5Z" fill="url(#radial-gradient-12)"/><path d="M110.65,230.43c-.73-.18-1.47-.34-2.22-.5l-1.09-.11c-.89-.1-1.76-.24-2.61-.4l-1,3.41c.77.2,1.53.42,2.29.65,1.42.13,2.83.29,4.24.5Z" fill="url(#radial-gradient-13)"/><path d="M183.12,216.18c.72-.49,1.44-1,2.13-1.58l.67-.54c-2.83,1.83-5.84,3.75-9.27,4.65l-1.7-.47c-2.75-1.18-3.42-4.62-4.28-7.29-1.13-7.47-2.66-14.77-2.18-22.26q-2.15,1.44-4.4,2.73a71,71,0,0,1-.88,17.28c-2.42,2.63-4.57-1.35-6.86-2-3.1-2.76-6.31-5.27-8.63-8.35-1.62.46-3.27.86-4.93,1.21a98.33,98.33,0,0,1,14.88,18.22c1.11,2.09,2.32,4.38,1.26,6.67-2.12,2.84-6.74,4.23-10.29,5.28,1-.18,1.9-.35,2.82-.5l1,3.43c-1.36.35-2.7.74-4,1.15a96.78,96.78,0,0,1,11.73-.33c7.65,1.47,11.68,7,14.18,13.63,1.94-.77,4.26-1.73,5.85-2.39-3.46-7.16-4.08-15.77,2-22.24,1.64-1.55,3.32-3.05,5.06-4.5-.82.44-1.64.89-2.44,1.36Z" fill="url(#radial-gradient-14)"/><path d="M151.46,229.19c-.92.15-1.86.32-2.82.5l-.74.22c-.85.26-1.71.46-2.57.64l.38,3.54c.91-.13,1.81-.23,2.71-.32,1.34-.41,2.68-.8,4-1.15Z" fill="url(#radial-gradient-15)"/><path d="M151.46,229.19c-.92.15-1.86.32-2.82.5l-.74.22c-.85.26-1.71.46-2.57.64l.38,3.54c.91-.13,1.81-.23,2.71-.32,1.34-.41,2.68-.8,4-1.15Z" fill="url(#radial-gradient-16)"/><path d="M212.74,187.92c.4-.63.8-1.29,1.18-2a30.54,30.54,0,0,1-6.4,7.29l-1.75.22c-3,0-4.92-3-6.74-5.1-3.9-6.45-8.1-12.6-10.52-19.69q-1.44,2.15-3,4.18a71.19,71.19,0,0,1,5.8,16.29c-1.23,3.36-4.75.5-7.13.75-3.93-1.39-7.88-2.48-11.21-4.45q-2,1.58-4.11,3a98,98,0,0,1,20.78,11.17c1.84,1.5,3.82,3.16,3.72,5.68-.86,3.4-4.55,6.44-7.41,8.76.85-.55,1.68-1.09,2.5-1.6l2.24,2.79c-1.17.86-2.29,1.77-3.39,2.69a98,98,0,0,1,10.64-4.77c7.63-1.56,13.48,2,18.33,7.17,1.49-1.46,3.26-3.23,4.49-4.45-5.94-5.28-9.81-13-6.64-21.32,1-2.32,2.14-4.6,3.34-6.84-.66.79-1.31,1.59-1.93,2.42Z" fill="url(#radial-gradient-17)"/><path d="M188.42,212.46c-.82.51-1.65,1-2.5,1.6l-.67.54c-.69.57-1.41,1.09-2.13,1.58l1.71,3.12c.8-.47,1.62-.92,2.44-1.36,1.1-.92,2.22-1.83,3.39-2.69Z" fill="url(#radial-gradient-18)"/><path d="M188.42,212.46c-.82.51-1.65,1-2.5,1.6l-.67.54c-.69.57-1.41,1.09-2.13,1.58l1.71,3.12c.8-.47,1.62-.92,2.44-1.36,1.1-.92,2.22-1.83,3.39-2.69Z" fill="url(#radial-gradient-19)"/><path d="M229.14,151c.11-.63.21-1.27.29-1.91a28.39,28.39,0,0,1-2.94,8.3l-1.52.88c-2.78,1.1-5.69-.86-8.18-2.14-4.26-3.13-8.6-6.07-12.52-9.48-1.22.8-2.45,1.59-3.7,2.35a72.37,72.37,0,0,1,9.36,10.82c.14,3.58-4.2,2.28-6.3,3.41-4.11.23-8.12.72-11.91.2q-1.25,2.22-2.62,4.34a97.85,97.85,0,0,1,23.29,2.36c2.27.69,4.74,1.46,5.61,3.82.55,3.75-2.11,8.37-3.9,11.7l-.18.3c.71-1,1.39-2,2.08-3l3.14,1.71c-.6,1-1.16,2-1.71,3a98.29,98.29,0,0,1,7.82-8.25c6.45-4.36,13.21-3.31,19.67-.39.82-1.92,1.78-4.22,2.44-5.83-7.5-2.6-14-8.25-14.29-17.15.07-2.5.2-5,.45-7.5-.35,1.12-.68,2.26-1,3.4Z" fill="url(#radial-gradient-20)"/><path d="M216,183c-.69,1-1.37,2-2.08,3-.38.67-.78,1.33-1.18,2l2.76,2.23c.62-.83,1.27-1.63,1.93-2.42.55-1,1.11-2,1.71-3Z" fill="url(#radial-gradient-21)"/><path d="M216,183c-.69,1-1.37,2-2.08,3-.38.67-.78,1.33-1.18,2l2.76,2.23c.62-.83,1.27-1.63,1.93-2.42.55-1,1.11-2,1.71-3Z" fill="url(#radial-gradient-22)"/><path d="M237.19,116.44a140,140,0,0,1-17.88,18.79c.9-.19,1.8-.36,2.7-.52,2.36-.23,4.94-.46,6.65,1.39,1.94,3.26,1.25,8.54.86,12.29,0,.24-.06.47-.09.71.34-1.52.64-3,1-4.44l3.55.39c-.18,1.19-.32,2.37-.44,3.56a101.53,101.53,0,0,1,3.95-10.19c4.28-6.49,10.93-8.11,18-7.88,0-2.09,0-4.59,0-6.33C248.5,124.63,241.29,122.54,237.19,116.44Z" fill="url(#radial-gradient-23)"/><path d="M230.41,144.66c-.34,1.42-.64,2.92-1,4.44-.08.64-.18,1.28-.29,1.91l3.4,1c.3-1.14.63-2.28,1-3.4.12-1.19.26-2.37.44-3.56Z" fill="url(#radial-gradient-24)"/><path d="M230.41,144.66c-.34,1.42-.64,2.92-1,4.44-.08.64-.18,1.28-.29,1.91l3.4,1c.3-1.14.63-2.28,1-3.4.12-1.19.26-2.37.44-3.56Z" fill="url(#radial-gradient-25)"/><path d="M193.42,153.12a70.35,70.35,0,0,1-131.33,0c-1.26-.67-2.52-1.36-3.76-2.08A72.29,72.29,0,0,0,64,163.76l1-.07-.3-.58.22.1a13.79,13.79,0,0,0,.55,1.73,13.13,13.13,0,0,0,1.89,3.21l-.69,0c.22.35.46.7.69,1l.25-.61a1.79,1.79,0,0,0-.22-.46l.23-.12a12.29,12.29,0,0,0,3.08,4.86l0,0v0a.35.35,0,0,0-.11-.1l-.26.46a73.63,73.63,0,0,0,12.52,12.43l.83-.41-.5-.43a1,1,0,0,1,.24,0,13.19,13.19,0,0,0,1.17,1.38,13.33,13.33,0,0,0,2.74,2.11l-.18-.14.16-.21a12.26,12.26,0,0,0,4.7,3.31l0,0h0l-.15,0c0,.13,0,.26,0,.39a73,73,0,0,0,16.38,6.76l.55-.63-.63-.21.22-.07a12.3,12.3,0,0,0,1.62.83,13.12,13.12,0,0,0,3.61.94l-.37.33,1,.2-.21-.49c-.17-.09,5.16.86,5.12.86s.07.25.1.38a74.14,74.14,0,0,0,8.48.49,72.74,72.74,0,0,0,9.26-.58c.08-.24.16-.47.24-.72a38.45,38.45,0,0,0,5-.47c-.06.12-.12.24-.17.36l.68-.13-.34-.34a1.67,1.67,0,0,0-.51,0l0-.26a12.35,12.35,0,0,0,5.67-1,.05.05,0,0,1,0,0h0l-.14.07.22.29a73.11,73.11,0,0,0,16.37-6.89c0-.24,0-.48,0-.71l-.6.29.11-.21a12,12,0,0,0,1.73-.56,12.83,12.83,0,0,0,3.21-1.89c0,.12,0,.23,0,.35l.34-.24-.38-.15a1.78,1.78,0,0,0-.46.21l-.12-.22a12.41,12.41,0,0,0,4.85-3.07l0,0h0l-.1.11c.09.06.19.1.27.16a73.59,73.59,0,0,0,12.54-12.59l-.32-.66-.44.5a2,2,0,0,1,0-.24,14.53,14.53,0,0,0,1.38-1.17,13.5,13.5,0,0,0,2.25-3c0,.13.09.25.13.37l.59-.9h-.59a1.9,1.9,0,0,0-.34.36L188,168a12.36,12.36,0,0,0,3.31-4.69.09.09,0,0,0,0-.05h0a1.21,1.21,0,0,0-.05.14c.15,0,.3,0,.46.06A72.45,72.45,0,0,0,197.18,151C195.94,151.75,194.69,152.44,193.42,153.12Z" fill="url(#radial-gradient-26)"/><path d="M87.49,188.49l-.49.17.53.35c0-.16,0-.32,0-.49Z" fill="url(#radial-gradient-27)"/><path d="M65.44,164.94a13.79,13.79,0,0,1-.55-1.73l-.22-.1.3.58-1,.07q1.25,2.24,2.66,4.35l.69,0A13.13,13.13,0,0,1,65.44,164.94Z" fill="url(#radial-gradient-28)"/><path d="M65.44,164.94a13.79,13.79,0,0,1-.55-1.73l-.22-.1.3.58-1,.07q1.25,2.24,2.66,4.35l.69,0A13.13,13.13,0,0,1,65.44,164.94Z" fill="url(#radial-gradient-29)"/><path d="M87.33,188.33a13.33,13.33,0,0,1-2.74-2.11,13.19,13.19,0,0,1-1.17-1.38,1,1,0,0,0-.24,0l.5.43-.83.41q2,1.58,4.15,3l.49-.17A.81.81,0,0,0,87.33,188.33Z" fill="url(#radial-gradient-30)"/><path d="M87.33,188.33a13.33,13.33,0,0,1-2.74-2.11,13.19,13.19,0,0,1-1.17-1.38,1,1,0,0,0-.24,0l.5.43-.83.41q2,1.58,4.15,3l.49-.17A.81.81,0,0,0,87.33,188.33Z" fill="url(#radial-gradient-31)"/><path d="M70.7,172.87v0l0,0A12.29,12.29,0,0,1,67.59,168l-.23.12a1.79,1.79,0,0,1,.22.46l-.25.61q1.42,2.1,3,4.08l.26-.46A.35.35,0,0,1,70.7,172.87Z" fill="url(#radial-gradient-32)"/><path d="M70.7,172.87v0l0,0A12.29,12.29,0,0,1,67.59,168l-.23.12a1.79,1.79,0,0,1,.22.46l-.25.61q1.42,2.1,3,4.08l.26-.46A.35.35,0,0,1,70.7,172.87Z" fill="url(#radial-gradient-33)"/><path d="M110,198.35a12.3,12.3,0,0,1-1.62-.83l-.22.07.63.21-.55.63q2.46.67,5,1.19l.37-.33A13.12,13.12,0,0,1,110,198.35Z" fill="url(#radial-gradient-34)"/><path d="M110,198.35a12.3,12.3,0,0,1-1.62-.83l-.22.07.63.21-.55.63q2.46.67,5,1.19l.37-.33A13.12,13.12,0,0,1,110,198.35Z" fill="url(#radial-gradient-35)"/><path d="M92.07,191.32h0l0,0a12.26,12.26,0,0,1-4.7-3.31l-.16.21.18.14.23.13-.07,0,0,0c0,.17,0,.33,0,.49,1.41.94,2.86,1.82,4.34,2.66,0-.13,0-.26,0-.39Z" fill="url(#radial-gradient-36)"/><path d="M92.07,191.32h0l0,0a12.26,12.26,0,0,1-4.7-3.31l-.16.21.18.14.23.13-.07,0,0,0c0,.17,0,.33,0,.49,1.41.94,2.86,1.82,4.34,2.66,0-.13,0-.26,0-.39Z" fill="url(#radial-gradient-37)"/><path d="M87.49,188.49l.07,0-.23-.13A.81.81,0,0,1,87.49,188.49Z" fill="url(#radial-gradient-38)"/><path d="M87.49,188.49l.07,0-.23-.13A.81.81,0,0,1,87.49,188.49Z" fill="url(#radial-gradient-39)"/><path d="M87.49,188.49l.07,0-.23-.13A.81.81,0,0,1,87.49,188.49Z" fill="url(#radial-gradient-40)"/><path d="M137.26,199.76c-.08.25-.16.48-.24.72,1.71-.21,3.41-.49,5.09-.83,0-.12.11-.24.17-.36A38.45,38.45,0,0,1,137.26,199.76Z" fill="url(#radial-gradient-41)"/><path d="M137.26,199.76c-.08.25-.16.48-.24.72,1.71-.21,3.41-.49,5.09-.83,0-.12.11-.24.17-.36A38.45,38.45,0,0,1,137.26,199.76Z" fill="url(#radial-gradient-42)"/><path d="M114.06,199.33l.21.49q2.48.47,5,.75c0-.13-.07-.25-.1-.38S113.89,199.24,114.06,199.33Z" fill="url(#radial-gradient-43)"/><path d="M114.06,199.33l.21.49q2.48.47,5,.75c0-.13-.07-.25-.1-.38S113.89,199.24,114.06,199.33Z" fill="url(#radial-gradient-44)"/><path d="M165.29,190.23a12,12,0,0,1-1.73.56l-.11.21.6-.29c0,.23,0,.47,0,.71q2.25-1.29,4.4-2.73c0-.12,0-.23,0-.35A12.83,12.83,0,0,1,165.29,190.23Z" fill="url(#radial-gradient-45)"/><path d="M165.29,190.23a12,12,0,0,1-1.73.56l-.11.21.6-.29c0,.23,0,.47,0,.71q2.25-1.29,4.4-2.73c0-.12,0-.23,0-.35A12.83,12.83,0,0,1,165.29,190.23Z" fill="url(#radial-gradient-46)"/><path d="M147.64,198h0a.05.05,0,0,0,0,0,12.35,12.35,0,0,1-5.67,1l0,.26a1.67,1.67,0,0,1,.51,0l.34.34c1.66-.35,3.31-.75,4.93-1.21l-.22-.29Z" fill="url(#radial-gradient-47)"/><path d="M147.64,198h0a.05.05,0,0,0,0,0,12.35,12.35,0,0,1-5.67,1l0,.26a1.67,1.67,0,0,1,.51,0l.34.34c1.66-.35,3.31-.75,4.93-1.21l-.22-.29Z" fill="url(#radial-gradient-48)"/><path d="M186.13,171.29a14.53,14.53,0,0,1-1.38,1.17,2,2,0,0,0,0,.24l.44-.5.32.66q1.59-2,3-4.18c0-.12-.09-.24-.13-.37A13.5,13.5,0,0,1,186.13,171.29Z" fill="url(#radial-gradient-49)"/><path d="M186.13,171.29a14.53,14.53,0,0,1-1.38,1.17,2,2,0,0,0,0,.24l.44-.5.32.66q1.59-2,3-4.18c0-.12-.09-.24-.13-.37A13.5,13.5,0,0,1,186.13,171.29Z" fill="url(#radial-gradient-50)"/><path d="M172.77,185.18h0l0,0a12.41,12.41,0,0,1-4.85,3.07l.12.22a1.78,1.78,0,0,1,.46-.21l.38.15q2.11-1.42,4.11-3c-.08-.06-.18-.1-.27-.16Z" fill="url(#radial-gradient-51)"/><path d="M172.77,185.18h0l0,0a12.41,12.41,0,0,1-4.85,3.07l.12.22a1.78,1.78,0,0,1,.46-.21l.38.15q2.11-1.42,4.11-3c-.08-.06-.18-.1-.27-.16Z" fill="url(#radial-gradient-52)"/><path d="M191.31,163.24h0a.09.09,0,0,1,0,.05A12.36,12.36,0,0,1,188,168l.2.16a1.9,1.9,0,0,1,.34-.36h.59q1.38-2.11,2.62-4.34c-.16,0-.31,0-.46-.06A1.21,1.21,0,0,1,191.31,163.24Z" fill="url(#radial-gradient-53)"/><path d="M191.31,163.24h0a.09.09,0,0,1,0,.05A12.36,12.36,0,0,1,188,168l.2.16a1.9,1.9,0,0,1,.34-.36h.59q1.38-2.11,2.62-4.34c-.16,0-.31,0-.46-.06A1.21,1.21,0,0,1,191.31,163.24Z" fill="url(#radial-gradient-54)"/><path d="M52,91.84c-2.1,1.14-6.44-.15-6.29,3.41a70.72,70.72,0,0,0,11.58,12.84,72.74,72.74,0,0,1,6.88-16.42C60.32,91.1,56.23,91.61,52,91.84Z" fill="none"/><path d="M188.87,64.15A70.94,70.94,0,0,0,172.47,70a73.23,73.23,0,0,1,12.67,12.52c2-3.34,3.09-7.29,4.47-11.24C189.36,68.9,192.22,65.39,188.87,64.15Z" fill="none"/><path d="M193.19,49.66,193,47.91c-2.67-3.53-6.55-5.84-9.85-8.19-2.81-1.43-6-2.72-8.72-2.33-2.37.88-3.14,3.34-3.83,5.62a98.17,98.17,0,0,0-2.35,23.88l.07.08c7.14-2.42,13.32-6.65,19.81-10.57C190.23,54.58,193.15,52.65,193.19,49.66Z" fill="none"/><path d="M57.25,147.47a25,25,0,0,0-2,1.71c1,.63,2.06,1.25,3.1,1.85C57.94,149.85,57.58,148.67,57.25,147.47Z" fill="none"/><path d="M163.67,64.1h0l.15,0c.62-3.93.09-8.09-.14-12.38-1.14-2.09.16-6.43-3.41-6.29a71.5,71.5,0,0,0-13.1,11.88,73.06,73.06,0,0,1,20.28,9.08,12.78,12.78,0,0,0-3.72-2.31Z" fill="none"/><path d="M206.39,99.4c.68-2.28,4.67-4.43,2-6.86a71.23,71.23,0,0,0-17.12-.89,72.3,72.3,0,0,1,6.85,16.28C201.18,105.62,203.66,102.46,206.39,99.4Z" fill="none"/><path d="M224.14,96.82c-2.29-1-4.59.14-6.68,1.27a97.59,97.59,0,0,0-18.09,14.76c.06.28.11.57.17.86,6.67,3.23,13.93,4.6,21.18,6.39,2.8.23,6.23.92,8.37-1.17l1.07-1.39c.5-3.59-.16-7.17-.77-10.55C228.33,103.46,226.94,98.92,224.14,96.82Z" fill="none"/><path d="M210.68,85.08c2.66-.86,6.11-1.53,7.29-4.28l.46-1.69c-1.05-4-3.54-7.51-5.61-10.78-2.18-2.62-4.85-5.49-7.8-6.24-2.52-.09-4.18,1.89-5.68,3.73a98.06,98.06,0,0,0-11.18,20.81l.45.65C196,87.72,203.27,86.21,210.68,85.08Z" fill="none"/><path d="M64.17,66.79A70.85,70.85,0,0,0,70,83.06a73.42,73.42,0,0,1,12.5-12.6c-3.32-2-7.24-3-11.16-4.41C68.92,66.29,65.4,63.43,64.17,66.79Z" fill="none"/><path d="M99.67,49c-2.28-.68-4.44-4.67-6.86-2a71.19,71.19,0,0,0-.89,17.18,72.75,72.75,0,0,1,16.41-6.75C106,54.26,102.79,51.75,99.67,49Z" fill="none"/><path d="M56.41,67.57c-1.81-2.14-3.74-5.06-6.74-5.1l-1.74.22c-3.23,2.45-5.44,5.9-7.59,9-1.56,3-3.12,6.47-2.69,9.43.86,2.37,3.34,3.14,5.61,3.83a98.7,98.7,0,0,0,23.63,2.36l0-.07C64.51,80.16,60.31,74,56.41,67.57Z" fill="none"/><path d="M85.35,44.68c-.86-2.67-1.53-6.11-4.28-7.29l-1.69-.46c-3.85,1-7.16,3.28-10.28,5.29-2.79,2.28-6.17,5.19-7,8.42-.1,2.52,1.89,4.18,3.73,5.68a98.25,98.25,0,0,0,20.7,11.14l1-.68C88,59.35,86.48,52.1,85.35,44.68Z" fill="none"/><path d="M197.18,151c1.14-.66,2.27-1.33,3.39-2-.71-.67-1.44-1.33-2.18-2C198,148.38,197.62,149.72,197.18,151Z" fill="none"/><path d="M120.45,34.8c.23-2.8.93-6.23-1.16-8.37l-1.39-1.08c-4.13-.57-8.25.38-12.05,1-3.25,1-6.93,2.38-8.76,4.82-1,2.29.15,4.59,1.27,6.68A98.23,98.23,0,0,0,113.3,56.18L114,56C117.28,49.35,118.66,42.07,120.45,34.8Z" fill="none"/><path d="M126.49,39.73a70.47,70.47,0,0,0-7.4,15.53,72.88,72.88,0,0,1,8.67-.51,75.22,75.22,0,0,1,9.06.55c-.95-3.75-3-7.3-4.77-11.06C130.19,42.73,129.73,38.23,126.49,39.73Z" fill="none"/><path d="M156.56,38.61c1.29-2.5,3.25-5.4,2.14-8.19l-.88-1.52a25.4,25.4,0,0,0-6.7-2.56c-.78-.14-1.57-.26-2.38-.35-3.75-.38-9-1.07-12.29.87-1.85,1.71-1.62,4.29-1.38,6.65a97.47,97.47,0,0,0,6.8,22.6c1.06.21,2.1.44,3.14.69a13.49,13.49,0,0,0-2.89-.67C147.89,51.13,152,44.79,156.56,38.61Z" fill="none"/><path d="M199.55,142a51.75,51.75,0,0,0,4.72,4.65,142.07,142.07,0,0,0,15-11.43,97,97,0,0,0-19.64,6.18Z" fill="none"/><path d="M127.76,57.58a70.37,70.37,0,0,0-65.67,95.53,139.47,139.47,0,0,0,131.33,0,70.36,70.36,0,0,0-65.66-95.54Z" fill="none"/><path d="M38.86,98.94c-2.49-1.28-5.4-3.24-8.18-2.13l-1.53.87A31.91,31.91,0,0,0,26,107.15c-.39,3.73-1,8.82.9,12,1.71,1.85,4.29,1.62,6.65,1.39A98.16,98.16,0,0,0,56,113.78c0-.23.08-.46.13-.69C51.15,107.48,44.92,103.41,38.86,98.94Z" fill="none"/><path d="M200.42,136.41c3.68-1,7.16-2.94,10.85-4.71,1.51-1.86,6-2.32,4.52-5.57a71.47,71.47,0,0,0-15.44-7.36,74.35,74.35,0,0,1,.57,9.13A72.43,72.43,0,0,1,200.42,136.41Z" fill="none"/><path d="M55.16,118.81c-3.7,1-7.21,3-10.92,4.74-1.5,1.85-6,2.32-4.51,5.56a71.35,71.35,0,0,0,15.37,7.34,73.71,73.71,0,0,1,.06-17.64Z" fill="none"/><path d="M56.06,142.54c-.07-.35-.13-.71-.2-1.06-6.08-2.92-12.64-4.32-19.25-5.89a139.9,139.9,0,0,0,15,11.29Q53.9,144.78,56.06,142.54Z" fill="none"/><path d="M72.33,39.76c-.73.5-1.44,1-2.13,1.58l-1.1.88c3.12-2,6.43-4.29,10.28-5.29l1.69.46c2.75,1.18,3.42,4.62,4.28,7.29,1.13,7.42,2.64,14.67,2.2,22.1q2.13-1.41,4.37-2.67a71.19,71.19,0,0,1,.89-17.18c2.42-2.63,4.58,1.36,6.86,2,3.12,2.78,6.34,5.29,8.66,8.39,1.63-.45,3.29-.85,5-1.18A98.23,98.23,0,0,1,98.36,37.9c-1.12-2.09-2.32-4.39-1.27-6.68,1.83-2.44,5.51-3.81,8.76-4.82l-1.22.21-1-3.43c1.65-.41,3.27-.89,4.88-1.41a93.59,93.59,0,0,1-12.64.43c-7.64-1.48-11.68-7-14.19-13.63-1.93.76-4.24,1.72-5.84,2.38,3.46,7.16,4.08,15.77-2,22.25-1.64,1.54-3.32,3-5.06,4.5.63-.34,1.25-.69,1.87-1.05Z" fill="#e1c982"/><path d="M42.92,67.16c-.48.74-.94,1.48-1.37,2.27s-.79,1.46-1.21,2.26c2.15-3.1,4.36-6.55,7.59-9l1.74-.22c3,0,4.93,3,6.74,5.1,3.9,6.44,8.1,12.59,10.53,19.67,1-1.43,2-2.82,3-4.18a70.85,70.85,0,0,1-5.78-16.27c1.23-3.36,4.75-.5,7.12-.74,3.92,1.37,7.84,2.45,11.16,4.41q2-1.58,4.09-3a98.25,98.25,0,0,1-20.7-11.14C64,54.82,62,53.16,62.11,50.64c.82-3.23,4.2-6.14,7-8.42-.5.33-1,.65-1.5,1l-2.24-2.78c1.16-.86,2.29-1.77,3.39-2.69a94.7,94.7,0,0,1-11.22,5.07c-7.62,1.56-13.47-2-18.32-7.17-1.5,1.46-3.27,3.22-4.49,4.45,5.94,5.29,9.8,13,6.64,21.32-.78,1.74-1.59,3.46-2.46,5.16.42-.53.84-1.06,1.25-1.6Z" fill="#e1c982"/><path d="M67.6,43.17c.5-.3,1-.62,1.5-1l1.1-.88c.69-.57,1.4-1.08,2.13-1.58l-1.71-3.11c-.62.36-1.24.71-1.87,1.05-1.1.92-2.23,1.83-3.39,2.69Z" fill="url(#radial-gradient-55)"/><path d="M67.6,43.17c.5-.3,1-.62,1.5-1l1.1-.88c.69-.57,1.4-1.08,2.13-1.58l-1.71-3.11c-.62.36-1.24.71-1.87,1.05-1.1.92-2.23,1.83-3.39,2.69Z" fill="#e1c982"/><path d="M30.68,96.81c2.78-1.11,5.69.85,8.18,2.13,6.06,4.47,12.29,8.54,17.24,14.15.35-1.69.75-3.35,1.21-5A70.72,70.72,0,0,1,45.73,95.25C45.58,91.69,49.92,93,52,91.84c4.21-.23,8.3-.74,12.17-.17q1.28-2.23,2.7-4.36A98.7,98.7,0,0,1,43.26,85c-2.27-.69-4.75-1.46-5.61-3.83-.43-3,1.13-6.46,2.69-9.43-.3.43-.6.86-.9,1.27L36.3,71.25c.93-1.55,1.79-3.12,2.6-4.72a94.28,94.28,0,0,1-8.5,9.07C24,80,17.18,78.91,10.73,76,9.9,77.91,9,80.22,8.28,81.82c7.51,2.61,14,8.26,14.3,17.16-.07,2.36-.19,4.72-.41,7.08.28-.93.56-1.87.8-2.83l3.42,1c-.16.86-.31,1.73-.4,2.62l0,.3a31.91,31.91,0,0,1,3.19-9.47Z" fill="#e1c982"/><path d="M39.44,73c.3-.41.6-.84.9-1.27.42-.8.84-1.56,1.21-2.26s.89-1.53,1.37-2.27l-2.77-2.23c-.41.54-.83,1.07-1.25,1.6-.81,1.6-1.67,3.17-2.6,4.72Z" fill="url(#radial-gradient-56)"/><path d="M39.44,73c.3-.41.6-.84.9-1.27.42-.8.84-1.56,1.21-2.26s.89-1.53,1.37-2.27l-2.77-2.23c-.41.54-.83,1.07-1.25,1.6-.81,1.6-1.67,3.17-2.6,4.72Z" fill="#e1c982"/><path d="M36.61,135.59c6.61,1.57,13.17,3,19.25,5.89-.31-1.66-.57-3.34-.76-5a71.35,71.35,0,0,1-15.37-7.34c-1.5-3.24,3-3.71,4.51-5.56,3.71-1.79,7.22-3.77,10.92-4.74.21-1.7.48-3.37.81-5a98.16,98.16,0,0,1-22.46,6.75c-2.36.23-4.94.46-6.65-1.39-1.89-3.17-1.29-8.26-.9-12-.24,1.12-.47,2.22-.72,3.27L21.69,110c.2-1.33.35-2.65.48-4a98.62,98.62,0,0,1-3.91,10.29A140.29,140.29,0,0,0,36.61,135.59Z" fill="#e1c982"/><path d="M26.39,104.23l-3.42-1c-.24,1-.52,1.9-.8,2.83-.13,1.33-.28,2.65-.48,4l3.55.38c.25-1,.48-2.15.72-3.27l0-.3C26.08,106,26.23,105.09,26.39,104.23Z" fill="url(#radial-gradient-57)"/><path d="M26.39,104.23l-3.42-1c-.24,1-.52,1.9-.8,2.83-.13,1.33-.28,2.65-.48,4l3.55.38c.25-1,.48-2.15.72-3.27l0-.3C26.08,106,26.23,105.09,26.39,104.23Z" fill="#e1c982"/><path d="M56.06,142.54q-2.16,2.24-4.46,4.34c1.2.79,2.4,1.56,3.63,2.3a25,25,0,0,1,2-1.71Q56.58,145,56.06,142.54Z" fill="url(#radial-gradient-58)"/><path d="M199.55,142c-.33,1.7-.72,3.37-1.16,5,.74.64,1.47,1.3,2.18,2,1.25-.76,2.48-1.55,3.7-2.35A51.75,51.75,0,0,1,199.55,142Z" fill="url(#radial-gradient-59)"/><path d="M233.5,107.36c.09.89.19,1.79.31,2.68l-3.53.38c-.18-.86-.39-1.72-.64-2.57-.08-.27-.17-.56-.25-.86.61,3.38,1.27,7,.77,10.55l-1.07,1.39c-2.14,2.09-5.57,1.4-8.37,1.17-7.25-1.79-14.51-3.16-21.18-6.39.33,1.67.6,3.35.81,5.06a71.47,71.47,0,0,1,15.44,7.36c1.5,3.25-3,3.71-4.52,5.57-3.69,1.77-7.17,3.74-10.85,4.71-.19,1.69-.44,3.35-.75,5a97,97,0,0,1,19.64-6.18,140,140,0,0,0,17.88-18.79,17.61,17.61,0,0,1-1.45-2.61Q234.53,110.64,233.5,107.36Z" fill="#e1c982"/><path d="M215.9,72.3c-.5-.71-1-1.43-1.58-2.12s-1-1.21-1.5-1.85c2.07,3.27,4.56,6.73,5.61,10.78L218,80.8c-1.18,2.75-4.63,3.42-7.29,4.28-7.41,1.13-14.65,2.64-22.07,2.2q1.42,2.13,2.7,4.37a71.23,71.23,0,0,1,17.12.89c2.63,2.43-1.36,4.58-2,6.86-2.73,3.06-5.21,6.22-8.23,8.53q.69,2.43,1.21,4.92a97.59,97.59,0,0,1,18.09-14.76c2.09-1.13,4.39-2.32,6.68-1.27,2.8,2.1,4.19,6.64,5.25,10.17-.17-.92-.34-1.83-.48-2.71l3.42-1c.35,1.38.75,2.73,1.17,4.08a95.21,95.21,0,0,1-.34-11.75c1.48-7.65,7-11.7,13.63-14.19-.77-1.94-1.73-4.25-2.39-5.86-7.15,3.47-15.76,4.09-22.24-2-1.37-1.46-2.72-3-4-4.49.28.52.58,1,.88,1.55Z" fill="#e1c982"/><path d="M228.91,104.28c.14.88.31,1.79.48,2.71.08.3.17.59.25.86.25.85.46,1.71.64,2.57l3.53-.38c-.12-.89-.22-1.79-.31-2.68-.42-1.35-.82-2.7-1.17-4.08Z" fill="url(#radial-gradient-60)"/><path d="M228.91,104.28c.14.88.31,1.79.48,2.71.08.3.17.59.25.86.25.85.46,1.71.64,2.57l3.53-.38c-.12-.89-.22-1.79-.31-2.68-.42-1.35-.82-2.7-1.17-4.08Z" fill="#e1c982"/><path d="M188.35,42.66c-.74-.47-1.49-.93-2.27-1.36s-1.91-1-3-1.58c3.3,2.35,7.18,4.66,9.85,8.19l.23,1.75c0,3-3,4.92-5.1,6.74-6.49,3.92-12.67,8.15-19.81,10.57l.06.06c1.42.94,2.79,1.93,4.13,3a70.94,70.94,0,0,1,16.4-5.85c3.35,1.24.49,4.75.74,7.13-1.38,4-2.48,7.9-4.47,11.24,1.06,1.33,2.06,2.7,3,4.11a98.06,98.06,0,0,1,11.18-20.81C200.84,64,202.5,62,205,62.09c2.95.75,5.62,3.62,7.8,6.24-.22-.33-.43-.67-.63-1L215,65.09c1,1.37,2.08,2.68,3.17,4a93.33,93.33,0,0,1-5.25-11.53c-1.56-7.63,2-13.48,7.17-18.33-1.46-1.49-3.23-3.26-4.45-4.49-5.29,5.94-13,9.81-21.33,6.64q-2.39-1.06-4.72-2.24c.33.27.67.53,1,.79Z" fill="#e1c982"/><path d="M212.19,67.33c.2.33.41.67.63,1,.53.64,1,1.27,1.5,1.85s1.08,1.41,1.58,2.12L219,70.6c-.3-.51-.6-1-.88-1.55-1.09-1.28-2.16-2.59-3.17-4Z" fill="url(#radial-gradient-61)"/><path d="M212.19,67.33c.2.33.41.67.63,1,.53.64,1,1.27,1.5,1.85s1.08,1.41,1.58,2.12L219,70.6c-.3-.51-.6-1-.88-1.55-1.09-1.28-2.16-2.59-3.17-4Z" fill="#e1c982"/><path d="M151.36,26.38l-.24,0a25.4,25.4,0,0,1,6.7,2.56l.88,1.52c1.11,2.79-.85,5.69-2.14,8.19-4.54,6.18-8.67,12.52-14.44,17.52a13.49,13.49,0,0,1,2.89.67c.72.17,1.44.36,2.15.55a71.5,71.5,0,0,1,13.1-11.88c3.57-.14,2.27,4.2,3.41,6.29.23,4.29.76,8.45.14,12.38l-.15,0h0l.05,0a12.78,12.78,0,0,1,3.72,2.31l.82.54h0l-.07-.08A98.17,98.17,0,0,1,170.56,43c.69-2.28,1.46-4.74,3.83-5.62,2.72-.39,5.91.9,8.72,2.33l-.42-.3,1.72-3.13c1.68,1,3.4,1.94,5.15,2.81a92.2,92.2,0,0,1-9.65-9c-4.36-6.45-3.32-13.22-.39-19.67-1.92-.83-4.23-1.78-5.83-2.45-2.61,7.51-8.26,14-17.16,14.29-2.71-.07-5.43-.22-8.14-.51,1.3.42,2.63.82,4,1.16Z" fill="#e1c982"/><path d="M182.69,39.42l.42.3c1.06.54,2.06,1.09,3,1.58s1.53.89,2.27,1.36l2.23-2.77c-.35-.26-.69-.52-1-.79-1.75-.87-3.47-1.8-5.15-2.81Z" fill="url(#radial-gradient-62)"/><path d="M182.69,39.42l.42.3c1.06.54,2.06,1.09,3,1.58s1.53.89,2.27,1.36l2.23-2.77c-.35-.26-.69-.52-1-.79-1.75-.87-3.47-1.8-5.15-2.81Z" fill="#e1c982"/><path d="M168.28,67h0l.08.06Z" fill="url(#radial-gradient-63)"/><path d="M168.28,67h0l.08.06Z" fill="url(#radial-gradient-64)"/><path d="M110.69,25.08c-.85.18-1.71.38-2.57.64l-2.27.68c3.8-.67,7.92-1.62,12.05-1l1.39,1.08c2.09,2.14,1.39,5.57,1.16,8.37C118.66,42.07,117.28,49.35,114,56c1.67-.32,3.36-.58,5.06-.78a70.47,70.47,0,0,1,7.4-15.53c3.24-1.5,3.7,3,5.56,4.51,1.8,3.76,3.82,7.31,4.77,11.06,1.71.22,3.39.49,5.05.81a97.47,97.47,0,0,1-6.8-22.6c-.24-2.36-.47-4.94,1.38-6.65,3.26-1.94,8.54-1.25,12.29-.87.81.09,1.6.21,2.38.35-2.06-.51-4.12-.89-6-1.35l.38-3.55c1,.14,1.95.26,2.92.37a102.13,102.13,0,0,1-9.61-3.76c-6.5-4.29-8.12-10.94-7.89-18-2.09,0-4.59,0-6.32,0,.46,7.94-2.26,16.13-10.38,19.77-1.88.71-3.77,1.39-5.68,2,.6-.07,1.2-.14,1.8-.23Z" fill="#e1c982"/><path d="M104.63,26.61l1.22-.21,2.27-.68c.86-.26,1.72-.46,2.57-.64l-.38-3.54c-.6.09-1.2.16-1.8.23-1.61.52-3.23,1-4.88,1.41Z" fill="url(#radial-gradient-65)"/><path d="M104.63,26.61l1.22-.21,2.27-.68c.86-.26,1.72-.46,2.57-.64l-.38-3.54c-.6.09-1.2.16-1.8.23-1.61.52-3.23,1-4.88,1.41Z" fill="#e1c982"/><path d="M145.09,25c1.91.46,4,.84,6,1.35l.24,0,1-3.41c-1.34-.34-2.67-.74-4-1.16-1-.11-1.95-.23-2.92-.37Z" fill="url(#radial-gradient-66)"/><path d="M145.09,25c1.91.46,4,.84,6,1.35l.24,0,1-3.41c-1.34-.34-2.67-.74-4-1.16-1-.11-1.95-.23-2.92-.37Z" fill="#e1c982"/><path d="M56.49,142.1a1.71,1.71,0,0,0,0-.32l-.63-.3c.07.35.13.71.2,1.06Z" fill="url(#radial-gradient-67)"/><path d="M66.94,87.24l0,.07H67A.14.14,0,0,1,66.94,87.24Z" fill="url(#radial-gradient-68)"/><path d="M188.13,87.25l.48,0-.45-.65c0,.12-.09.23-.14.35A1.69,1.69,0,0,0,188.13,87.25Z" fill="url(#radial-gradient-69)"/><path d="M113.83,56.46,114,56l-.73.14.28.27Z" fill="url(#radial-gradient-70)"/><path d="M56,136.1l.15.19A13,13,0,0,0,56,138.1a13.72,13.72,0,0,0,.46,3.5h0l.26,0a12.58,12.58,0,0,0,1,5.66l0,0v0a.91.91,0,0,0-.07-.14l-.4.32c.33,1.2.69,2.38,1.08,3.56,1.24.72,2.5,1.41,3.76,2.08a70.32,70.32,0,1,1,131.33,0c1.27-.68,2.52-1.37,3.76-2.09.44-1.31.84-2.65,1.21-4l-.6-.53-.22.63a1.87,1.87,0,0,0-.07-.22,14.5,14.5,0,0,0,.84-1.62,13.48,13.48,0,0,0,.93-3.6,4.12,4.12,0,0,1,.28.31l.12-.6c-.21.09-.42.17-.62.27a1.17,1.17,0,0,0-.17.47l-.26-.07a12.28,12.28,0,0,0,1.27-5.61.15.15,0,0,0,0-.06h0a.71.71,0,0,1,0,.15l.52-.15a72.43,72.43,0,0,0,.5-8.51,74.35,74.35,0,0,0-.57-9.13l-.87-.3,0,.67-.15-.19a13,13,0,0,0,.15-1.81,13.31,13.31,0,0,0-.52-3.69l.54.26c-.06-.29-.11-.58-.17-.86l-.46.46a1.35,1.35,0,0,0,0,.5l-.26,0a12.56,12.56,0,0,0-1-5.66l0-.05v0l.06.14c.15-.1.28-.21.42-.32a72.3,72.3,0,0,0-6.85-16.28l-.88,0,.29.6-.21-.11a13.08,13.08,0,0,0-.54-1.72,13.46,13.46,0,0,0-1.75-3l-.21.11a12.26,12.26,0,0,0-3.08-4.85l0,0v0l.12.11c.05-.08.09-.16.13-.24A73.23,73.23,0,0,0,172.47,70l-.55.27.5.44-.24,0a12.39,12.39,0,0,0-3.68-3.35l-.09.1c-.09-.12-.2-.23-.3-.34l-.07,0h0c-.2-.2-.4-.41-.62-.61a73.06,73.06,0,0,0-20.28-9.08l-.22.26.63.21-.23.07a13.65,13.65,0,0,0-1.62-.83c-.24-.1-.48-.18-.71-.26-1-.25-2.08-.48-3.14-.69.06.12.1.24.16.36a1.58,1.58,0,0,0,.47.17l-.07.25a12.41,12.41,0,0,0-5.61-1.26h0a0,0,0,0,1,0,0h.15c0-.11-.06-.21-.09-.32a75.22,75.22,0,0,0-9.06-.55,72.88,72.88,0,0,0-8.67.51l-.27.78.67,0-.18.15A11.84,11.84,0,0,0,117.5,56a13.47,13.47,0,0,0-3.41.44l0,.25a12.22,12.22,0,0,0-5.67,1l0,0h0l.14-.07-.2-.25a72.75,72.75,0,0,0-16.41,6.75l.06.82.59-.3c0,.07-.07.15-.11.22a13.79,13.79,0,0,0-1.73.55,13,13,0,0,0-3.21,1.89l0-.51-1,.68.46.18a1.57,1.57,0,0,0,.45-.22l.13.23a12.29,12.29,0,0,0-4.86,3.08s0,0,0,0h0l.11-.11-.33-.19A73.42,73.42,0,0,0,70,83.06c.11.23.22.46.34.68l.43-.5c0,.08,0,.16,0,.24a14.62,14.62,0,0,0-1.39,1.17,13.55,13.55,0,0,0-1.83,2.28l.2.16a12.48,12.48,0,0,0-3.31,4.7.07.07,0,0,0,0,0h0s0-.09,0-.14l-.2,0a72.74,72.74,0,0,0-6.88,16.42l.55.48.21-.62c0,.07.06.14.08.22a13.68,13.68,0,0,0-.84,1.62,13.27,13.27,0,0,0-.93,3.61c-.09-.11-.19-.21-.28-.31-.05.23-.09.46-.13.69l.5-.21a1.74,1.74,0,0,0,.17-.48l.25.08a12.34,12.34,0,0,0-1.26,5.6.09.09,0,0,0,0,0s0,0,0,0v-.16l-.46.13a73.71,73.71,0,0,0-.06,17.64l.94.32Z" fill="url(#radial-gradient-71)"/><path d="M87.52,67.29a13,13,0,0,1,3.21-1.89,13.79,13.79,0,0,1,1.73-.55c0-.07.07-.15.11-.22l-.59.3-.06-.82q-2.23,1.26-4.37,2.67Z" fill="url(#radial-gradient-72)"/><path d="M87.52,67.29a13,13,0,0,1,3.21-1.89,13.79,13.79,0,0,1,1.73-.55c0-.07.07-.15.11-.22l-.59.3-.06-.82q-2.23,1.26-4.37,2.67Z" fill="url(#radial-gradient-73)"/><path d="M113.83,56.46h-.25l-.28-.27c-1.68.33-3.34.73-5,1.18l.2.25-.14.07h0l0,0a12.22,12.22,0,0,1,5.67-1l0-.25-.29.07Z" fill="url(#radial-gradient-74)"/><path d="M113.83,56.46h-.25l-.28-.27c-1.68.33-3.34.73-5,1.18l.2.25-.14.07h0l0,0a12.22,12.22,0,0,1,5.67-1l0-.25-.29.07Z" fill="url(#radial-gradient-75)"/><path d="M67,87.3h.18a1.45,1.45,0,0,0,.34-.37h0a13.55,13.55,0,0,1,1.83-2.28,14.62,14.62,0,0,1,1.39-1.17c0-.08,0-.16,0-.24l-.43.5c-.12-.22-.23-.45-.34-.68-1,1.36-2.06,2.75-3,4.18A.14.14,0,0,0,67,87.3Z" fill="url(#radial-gradient-76)"/><path d="M67,87.3h.18a1.45,1.45,0,0,0,.34-.37h0a13.55,13.55,0,0,1,1.83-2.28,14.62,14.62,0,0,1,1.39-1.17c0-.08,0-.16,0-.24l-.43.5c-.12-.22-.23-.45-.34-.68-1,1.36-2.06,2.75-3,4.18A.14.14,0,0,0,67,87.3Z" fill="url(#radial-gradient-77)"/><path d="M82.78,70.65l-.11.11h0s0,0,0,0a12.29,12.29,0,0,1,4.86-3.08l-.13-.23a1.57,1.57,0,0,1-.45.22l-.46-.18q-2.1,1.42-4.09,3Z" fill="url(#radial-gradient-78)"/><path d="M82.78,70.65l-.11.11h0s0,0,0,0a12.29,12.29,0,0,1,4.86-3.08l-.13-.23a1.57,1.57,0,0,1-.45.22l-.46-.18q-2.1,1.42-4.09,3Z" fill="url(#radial-gradient-79)"/><path d="M56.38,113.4a13.27,13.27,0,0,1,.93-3.61,13.68,13.68,0,0,1,.84-1.62c0-.08-.06-.15-.08-.22l-.21.62-.55-.48c-.46,1.65-.86,3.31-1.21,5C56.19,113.19,56.29,113.29,56.38,113.4Z" fill="url(#radial-gradient-80)"/><path d="M56.38,113.4a13.27,13.27,0,0,1,.93-3.61,13.68,13.68,0,0,1,.84-1.62c0-.08-.06-.15-.08-.22l-.21.62-.55-.48c-.46,1.65-.86,3.31-1.21,5C56.19,113.19,56.29,113.29,56.38,113.4Z" fill="url(#radial-gradient-81)"/><path d="M67,87.3h-.07q-1.42,2.13-2.7,4.36l.2,0s0,.1,0,.14h0a.07.07,0,0,1,0,0,12.48,12.48,0,0,1,3.31-4.7l-.2-.16c-.14.23-.28.46-.41.69A3,3,0,0,1,67,87.3Z" fill="url(#radial-gradient-82)"/><path d="M67,87.3h-.07q-1.42,2.13-2.7,4.36l.2,0s0,.1,0,.14h0a.07.07,0,0,1,0,0,12.48,12.48,0,0,1,3.31-4.7l-.2-.16c-.14.23-.28.46-.41.69A3,3,0,0,1,67,87.3Z" fill="url(#radial-gradient-83)"/><path d="M67.14,87.3H67a3,3,0,0,0,.11.32c.13-.23.27-.46.41-.69h0A1.45,1.45,0,0,1,67.14,87.3Z" fill="url(#radial-gradient-84)"/><path d="M67.14,87.3H67a3,3,0,0,0,.11.32c.13-.23.27-.46.41-.69h0A1.45,1.45,0,0,1,67.14,87.3Z" fill="url(#radial-gradient-85)"/><path d="M67.14,87.3H67a3,3,0,0,0,.11.32c.13-.23.27-.46.41-.69h0A1.45,1.45,0,0,1,67.14,87.3Z" fill="url(#radial-gradient-86)"/><path d="M55.62,118.84s0,0,0,0a.09.09,0,0,1,0,0,12.34,12.34,0,0,1,1.26-5.6l-.25-.08a1.74,1.74,0,0,1-.17.48l-.5.21c-.33,1.66-.6,3.33-.81,5l.46-.13Z" fill="url(#radial-gradient-87)"/><path d="M55.62,118.84s0,0,0,0a.09.09,0,0,1,0,0,12.34,12.34,0,0,1,1.26-5.6l-.25-.08a1.74,1.74,0,0,1-.17.48l-.5.21c-.33,1.66-.6,3.33-.81,5l.46-.13Z" fill="url(#radial-gradient-88)"/><path d="M56.46,141.6a13.72,13.72,0,0,1-.46-3.5,13,13,0,0,1,.15-1.81L56,136.1l0,.67-.94-.32c.19,1.69.45,3.37.76,5l.63.3A1.13,1.13,0,0,0,56.46,141.6Z" fill="url(#radial-gradient-89)"/><path d="M56.46,141.6a13.72,13.72,0,0,1-.46-3.5,13,13,0,0,1,.15-1.81L56,136.1l0,.67-.94-.32c.19,1.69.45,3.37.76,5l.63.3A1.13,1.13,0,0,0,56.46,141.6Z" fill="url(#radial-gradient-90)"/><path d="M57.72,147.29v0l0,0a12.58,12.58,0,0,1-1-5.66l-.26,0h0c0,.07,0,.13,0,.19h0a1.71,1.71,0,0,1,0,.32l-.43.44q.51,2.49,1.19,4.93l.4-.32A.91.91,0,0,1,57.72,147.29Z" fill="url(#radial-gradient-91)"/><path d="M57.72,147.29v0l0,0a12.58,12.58,0,0,1-1-5.66l-.26,0h0c0,.07,0,.13,0,.19h0a1.71,1.71,0,0,1,0,.32l-.43.44q.51,2.49,1.19,4.93l.4-.32A.91.91,0,0,1,57.72,147.29Z" fill="url(#radial-gradient-92)"/><path d="M56.46,141.6a1.13,1.13,0,0,1,0,.18h0C56.49,141.73,56.48,141.67,56.46,141.6Z" fill="url(#radial-gradient-93)"/><path d="M56.46,141.6a1.13,1.13,0,0,1,0,.18h0C56.49,141.73,56.48,141.67,56.46,141.6Z" fill="url(#radial-gradient-94)"/><path d="M56.46,141.6a1.13,1.13,0,0,1,0,.18h0C56.49,141.73,56.48,141.67,56.46,141.6Z" fill="url(#radial-gradient-95)"/><path d="M198.34,145.3a14.5,14.5,0,0,1-.84,1.62,1.87,1.87,0,0,1,.07.22l.22-.63.6.53c.44-1.66.83-3.33,1.16-5a4.12,4.12,0,0,0-.28-.31A13.48,13.48,0,0,1,198.34,145.3Z" fill="url(#radial-gradient-96)"/><path d="M198.34,145.3a14.5,14.5,0,0,1-.84,1.62,1.87,1.87,0,0,1,.07.22l.22-.63.6.53c.44-1.66.83-3.33,1.16-5a4.12,4.12,0,0,0-.28-.31A13.48,13.48,0,0,1,198.34,145.3Z" fill="url(#radial-gradient-97)"/><path d="M199.89,136.41h0a.15.15,0,0,1,0,.06,12.28,12.28,0,0,1-1.27,5.61l.26.07a1.17,1.17,0,0,1,.17-.47c.2-.1.41-.18.62-.27.31-1.65.56-3.31.75-5l-.52.15A.71.71,0,0,0,199.89,136.41Z" fill="url(#radial-gradient-98)"/><path d="M199.89,136.41h0a.15.15,0,0,1,0,.06,12.28,12.28,0,0,1-1.27,5.61l.26.07a1.17,1.17,0,0,1,.17-.47c.2-.1.41-.18.62-.27.31-1.65.56-3.31.75-5l-.52.15A.71.71,0,0,0,199.89,136.41Z" fill="url(#radial-gradient-99)"/><path d="M199.52,117.14a13,13,0,0,1-.15,1.81l.15.19,0-.67.87.3c-.21-1.71-.48-3.39-.81-5.06l-.54-.26A13.31,13.31,0,0,1,199.52,117.14Z" fill="url(#radial-gradient-100)"/><path d="M199.52,117.14a13,13,0,0,1-.15,1.81l.15.19,0-.67.87.3c-.21-1.71-.48-3.39-.81-5.06l-.54-.26A13.31,13.31,0,0,1,199.52,117.14Z" fill="url(#radial-gradient-101)"/><path d="M188.13,87.25l.1.19h0a13.46,13.46,0,0,1,1.75,3,13.08,13.08,0,0,1,.54,1.72l.21.11-.29-.6.88,0q-1.27-2.24-2.7-4.37Z" fill="url(#radial-gradient-102)"/><path d="M188.13,87.25l.1.19h0a13.46,13.46,0,0,1,1.75,3,13.08,13.08,0,0,1,.54,1.72l.21.11-.29-.6.88,0q-1.27-2.24-2.7-4.37Z" fill="url(#radial-gradient-103)"/><path d="M197.74,108.25l-.06-.14v0l0,.05a12.56,12.56,0,0,1,1,5.66l.26,0a1.35,1.35,0,0,1,0-.5l.46-.46q-.52-2.49-1.21-4.92C198,108,197.89,108.15,197.74,108.25Z" fill="url(#radial-gradient-104)"/><path d="M197.74,108.25l-.06-.14v0l0,.05a12.56,12.56,0,0,1,1,5.66l.26,0a1.35,1.35,0,0,1,0-.5l.46-.46q-.52-2.49-1.21-4.92C198,108,197.89,108.15,197.74,108.25Z" fill="url(#radial-gradient-105)"/><path d="M168,67.05l.07,0s0,0-.05,0Z" fill="url(#radial-gradient-106)"/><path d="M168,67.05l.07,0s0,0-.05,0Z" fill="url(#radial-gradient-107)"/><path d="M188.13,87.25A1.69,1.69,0,0,1,188,87c0-.12.1-.23.14-.35-1-1.41-2-2.78-3-4.11,0,.08-.08.16-.13.24l-.12-.11v0l0,0A12.26,12.26,0,0,1,188,87.56l.21-.11-.15-.2Z" fill="url(#radial-gradient-108)"/><path d="M188.13,87.25A1.69,1.69,0,0,1,188,87c0-.12.1-.23.14-.35-1-1.41-2-2.78-3-4.11,0,.08-.08.16-.13.24l-.12-.11v0l0,0A12.26,12.26,0,0,1,188,87.56l.21-.11-.15-.2Z" fill="url(#radial-gradient-109)"/><path d="M168.58,67.23l-.08.1a12.39,12.39,0,0,1,3.68,3.35l.24,0-.5-.44.55-.27c-1.34-1-2.71-2-4.13-3Z" fill="url(#radial-gradient-110)"/><path d="M168.58,67.23l-.08.1a12.39,12.39,0,0,1,3.68,3.35l.24,0-.5-.44.55-.27c-1.34-1-2.71-2-4.13-3Z" fill="url(#radial-gradient-111)"/><path d="M188.13,87.25h-.06l.15.2h0Z" fill="url(#radial-gradient-112)"/><path d="M188.13,87.25h-.06l.15.2h0Z" fill="url(#radial-gradient-113)"/><path d="M188.13,87.25h-.06l.15.2h0Z" fill="url(#radial-gradient-114)"/><path d="M145.72,57.06a13.65,13.65,0,0,1,1.62.83l.23-.07-.63-.21.22-.26c-.71-.19-1.43-.38-2.15-.55C145.24,56.88,145.48,57,145.72,57.06Z" fill="url(#radial-gradient-115)"/><path d="M145.72,57.06a13.65,13.65,0,0,1,1.62.83l.23-.07-.63-.21.22-.26c-.71-.19-1.43-.38-2.15-.55C145.24,56.88,145.48,57,145.72,57.06Z" fill="url(#radial-gradient-116)"/><path d="M168.41,67.43l.09-.1-.39-.24C168.21,67.2,168.32,67.31,168.41,67.43Z" fill="url(#radial-gradient-117)"/><path d="M168.41,67.43l.09-.1-.39-.24C168.21,67.2,168.32,67.31,168.41,67.43Z" fill="url(#radial-gradient-118)"/><path d="M167.44,66.43c.22.2.42.41.62.61l.2-.07Z" fill="url(#radial-gradient-119)"/><path d="M167.44,66.43c.22.2.42.41.62.61l.2-.07Z" fill="url(#radial-gradient-120)"/><path d="M168.34,67l-.08-.06-.2.07s0,0,.05,0l.39.24.08-.1Z" fill="url(#radial-gradient-121)"/><path d="M168.34,67l-.08-.06-.2.07s0,0,.05,0l.39.24.08-.1Z" fill="url(#radial-gradient-122)"/><path d="M168.34,67l-.08-.06-.2.07s0,0,.05,0l.39.24.08-.1Z" fill="url(#radial-gradient-123)"/><path d="M136.91,55.62h-.15a0,0,0,0,0,0,0h0a12.41,12.41,0,0,1,5.61,1.26l.07-.25a1.58,1.58,0,0,1-.47-.17c-.06-.12-.1-.24-.16-.36-1.66-.32-3.34-.59-5.05-.81C136.85,55.41,136.89,55.51,136.91,55.62Z" fill="url(#radial-gradient-124)"/><path d="M136.91,55.62h-.15a0,0,0,0,0,0,0h0a12.41,12.41,0,0,1,5.61,1.26l.07-.25a1.58,1.58,0,0,1-.47-.17c-.06-.12-.1-.24-.16-.36-1.66-.32-3.34-.59-5.05-.81C136.85,55.41,136.89,55.51,136.91,55.62Z" fill="url(#radial-gradient-125)"/><path d="M113.83,56.46l.25,0v0A13.47,13.47,0,0,1,117.5,56a11.84,11.84,0,0,1,1.81.15l.18-.15-.67,0,.27-.78c-1.7.2-3.39.46-5.06.78Z" fill="url(#radial-gradient-126)"/><path d="M113.83,56.46l.25,0v0A13.47,13.47,0,0,1,117.5,56a11.84,11.84,0,0,1,1.81.15l.18-.15-.67,0,.27-.78c-1.7.2-3.39.46-5.06.78Z" fill="url(#radial-gradient-127)"/><path d="M113.83,56.46l0,0,.29-.07v0Z" fill="url(#radial-gradient-128)"/><path d="M113.83,56.46l0,0,.29-.07v0Z" fill="url(#radial-gradient-129)"/><path d="M113.83,56.46l0,0,.29-.07v0Z" fill="url(#radial-gradient-130)"/><path d="M214.94,127.9a87.18,87.18,0,1,1-87.18-87.17A87.18,87.18,0,0,1,214.94,127.9Z" fill="#fff" stroke="#c4a006" stroke-width="0.47"/><path d="M160.1,87.43c2-.26,3.91-3.2,3.91-3.2s2.93-4.23,9.53-3.84,8.18,2.56,8.55,4,2.57,1.79,5.25,1.66a5,5,0,0,1,4.16,2s2.32.38,4,.77,0-1.54-.24-2.31a6.47,6.47,0,0,1-.37-3.2c.24-1.15,4.64,1,6.47,1.41s1.23-1.54,1.23-1.54l1.22-.25-3.68-5.66c-.08-.12-.17-.23-.25-.34l-.59.62-1.71-3.07-1.47-.13L195,75.78l-1.1-1.28L192.23,74l-2.32-1.79L188.08,70l-.86-.51.86,2.3,2.2,2a11.13,11.13,0,0,1,.85,2.3c0,.52-2.08-.25-2.56-.38a21.16,21.16,0,0,1-2.81-2.18l-2.08-2.17-2.93-2.18s-5.87-3.71-6.6-3.71a61.65,61.65,0,0,1-6-1.79L170,65.54l4,2.3s3.79,1.28,5.25,1.92a7.43,7.43,0,0,1,2.44,1.79l-.73.39,1.1,2.81-2.32-2.55S176.35,70,174.27,70s-4.88-1.79-5.62-2-3.05-2-3.05-1.28-2.2.77-4.28,1.66-.24,3.2-.24,3.2l-1.47,1.67-.61,2.3.86,2.82.49,2.56L160,83.59s-.12.89-1.83,1a3.75,3.75,0,0,0-3.06,2.31.15.15,0,0,1,0,.07c.21.11.77.15.64.3a3.34,3.34,0,0,0-.37.53h0C156.19,87.56,158.15,87.68,160.1,87.43Z" fill="none"/><path d="M151.86,85.11a4.56,4.56,0,0,1-.82-.86,7.47,7.47,0,0,1-.76-1.85,9.75,9.75,0,0,0-2.19-6.77,1.2,1.2,0,0,0-1-.5L145,72.77a3,3,0,0,0-1.34.5,6.9,6.9,0,0,1-2.06,1.21s1.57,1.69,2.54,2.9,1.21,5.56,1.21,5.56l2.41,1.21s.85,2.06,1.33,2.18,2.66-.37,3.26-.37a7.47,7.47,0,0,1,2.26,1.18c.23,0,.4,0,.47-.15h0Z" fill="none"/><path d="M199.93,76.93l0,0c.08.11.17.22.25.34Z" fill="none"/><path d="M155.06,87c-.07.12-.24.16-.47.15l.4.28-1.75.4.88,2.17s.36-1.9,1.21-2.17a3.34,3.34,0,0,1,.37-.53C155.83,87.14,155.27,87.1,155.06,87Z" fill="none"/><path d="M154.59,87.14a7.16,7.16,0,0,1-1.82-.48l.47,1.16,1.75-.4Z" fill="none"/><path d="M215.68,127.91A87.92,87.92,0,1,1,127.76,40,87.92,87.92,0,0,1,215.68,127.91Z" fill="url(#radial-gradient-131)"/><path d="M85.42,124.87c2,.3,3.22-.71,4.6-1.27l2.59-1.35a1.71,1.71,0,0,1,2,.42,1.72,1.72,0,0,0,2-.71,11.24,11.24,0,0,1,1.71-1.52,11,11,0,0,0,1.89-.23,10.33,10.33,0,0,1,5.37,2.94c2.62.94,4.69,2.61,7.07,4,2.31.69,4.56,1.52,5.9,3.1.45,1.49,1.89,2,3.67,2a25.66,25.66,0,0,1,4.08.18,38,38,0,0,0,3.32,1.85,15.38,15.38,0,0,1,2.93.39,12.94,12.94,0,0,1,4.07,3.71,2.3,2.3,0,0,1-.07,1.42c-1.72,2.32-2.51,5.51-3.31,8.77a14.37,14.37,0,0,1-1.65,4.24,8.62,8.62,0,0,1-2.54,2.05c-1.36,1-3,1.66-4,2.82A68.32,68.32,0,0,0,122,167.76c-.2.86-1.23,1.27-2.29,1.2a4.61,4.61,0,0,0-4,3.85,3.06,3.06,0,0,1-2.32,2.25,2,2,0,0,0-1.31,1.92,3.43,3.43,0,0,1-.75,2.35,1.44,1.44,0,0,0-.34,1.51,11.44,11.44,0,0,1,1.84,4.53c-.53,1.38.62,2.22,1.27,2.91a2.12,2.12,0,0,1,.46,2.19,3.38,3.38,0,0,1-1.44.49,8.85,8.85,0,0,1-3.66-.21c-1.22-.37-1.79-1.51-2.27-2.67a32.86,32.86,0,0,1-2.13-5.31c0-2.15-1.23-3.15-1.75-4.68a24.11,24.11,0,0,1-1.15-7.76,8.15,8.15,0,0,0-1.83-3.67,9,9,0,0,1-1.38-2.17,8.72,8.72,0,0,0-1.18-5.78l-.49-4.44c-.78-1.39-2.28-2-3.52-2.8a22.71,22.71,0,0,0-3.32-1.62c-1.55-1.14-2.17-3.13-2.88-5a27,27,0,0,0-1.93-3.47,23.72,23.72,0,0,1,.28-4.31c0-.75.08-1.66.13-2.4A6.16,6.16,0,0,0,87.47,132a3.55,3.55,0,0,0-1-3.47,2.21,2.21,0,0,0-1.26-.43,12,12,0,0,1-5.6-2.14,5.87,5.87,0,0,1-1.44-.94,12.48,12.48,0,0,0-6.85-4.13c-2.3-1.47-5.25-2-7.66-3.13-1.74-.85-2.56-2.68-3.19-4.76a3.16,3.16,0,0,0-2.16-2.41,6.72,6.72,0,0,1-2.72-5.25c-.39-1.3-1.24-2.11-1.73-3.28a2.37,2.37,0,0,1,0-1.64,11,11,0,0,0-.42-7.3,8,8,0,0,1,0-1.89c.32-2.23.72-4.13,1.82-5.55a2.94,2.94,0,0,0,.25-2.29A4,4,0,0,1,57,78.89a2,2,0,0,0,.81-2.11,7.46,7.46,0,0,1,1.87-3,8.23,8.23,0,0,1,1.13-2.28,29.38,29.38,0,0,1,7.1-8.42c2.06-1.82,4-3.47,6.26-5.12l4.15-3.2,6-3.7a53.7,53.7,0,0,1,6.59-3.23,2.64,2.64,0,0,1,1.22-.13c.43,1.15,1.25,2,1.86,3.25a6.06,6.06,0,0,1,1.75,0,9.15,9.15,0,0,1,1.53.85c.28.13.7-.09.81.19a4.4,4.4,0,0,0,1.28,1.55,26.7,26.7,0,0,0,3,2.55c1.19,0,2.29.37,2.58,1.13a3.65,3.65,0,0,1,.21.68,9.26,9.26,0,0,1-1.32,5.92.75.75,0,0,1-.83.3,3,3,0,0,1-2-1.88c-.34-.73-.56-1.65-1.22-2.08a2.61,2.61,0,0,0-1.13-.35,1.28,1.28,0,0,0-1.27,1,1.63,1.63,0,0,1-.4.92c-.57.52-1.57.54-2.19,1a1.83,1.83,0,0,0-.6,1.61,3.8,3.8,0,0,1-4.76,2.62,5,5,0,0,0-4,.94c-.2.65.09,1.29-.08,1.9-.07.24-.52.91-.58,1.16s.3.57.58.68a16.76,16.76,0,0,0,1.73.71l1.41,1.72c.19.21.6.39.8.28,1.42-.74,3.13-1.19,4.29-2.28s1.59-2.61,2.16-4.15c.09-.22.36-.49.53-.46a13.27,13.27,0,0,0,3.92-.11,3.5,3.5,0,0,1,2.92,2.66c.26,1,.07,2.41.38,3.39a15.2,15.2,0,0,0,2,2.11c.45.17,1.1.23,1.41.69.87,1.29.76,3.83-.59,4.55a6.93,6.93,0,0,1-2.08.7c-.81-.23-1.71-.64-2.81-1a8.5,8.5,0,0,0-4,2.12c-.17.16-.33.6,0,.71.72.2,1.26-.2,1.86-.42a2.65,2.65,0,0,1,1.72-.07.72.72,0,0,1,.45.65,4.08,4.08,0,0,1-.92,2.38,10.74,10.74,0,0,1-4.89,3.45c-1.6,1.63-2.36,4.22-3.29,6.51-1.59,2.07-4,3.35-6.52,4.46a1.61,1.61,0,0,0-.76,2.11,12.88,12.88,0,0,1,1.21,2.75,5,5,0,0,1-.07,1.51c-.11.27-.39.56-.63.56-1.35,0-1.92-1-2.57-1.78a7.67,7.67,0,0,0-2.46-2.31,7.13,7.13,0,0,0-5.31,1.17,6.5,6.5,0,0,0-2.75.92,1.52,1.52,0,0,0-.32,1.07,9,9,0,0,1-1,3.8,4.3,4.3,0,0,0-.25,1.76l0,1.88a2.9,2.9,0,0,0,.6,1.26,1.11,1.11,0,0,0,1.31.13c.89-.73,1.5-1.88,2.86-2.19a3.17,3.17,0,0,0,1.38.14c.81.12,1.1.75,1.34,1.27a3.71,3.71,0,0,1-.23,2.8c-.09.25-.13.63.05.73.46.26.93,0,1.37,0,.93-.12,1.18.62,1.71,1" stroke="#dbe0ee" stroke-width="0.07" fill="url(#radial-gradient-132)"/><path d="M138.37,205.48c2.16-.33,3.89.27,5.53.55A25.1,25.1,0,0,1,147,205c3.72,0,6.41,1.17,9.14,2.2a28.83,28.83,0,0,1,4.07,2.06c-1.35.62-2.72,1.22-4,1.77-6.39,2.69-14,4.22-22.44,4.83a86.82,86.82,0,0,1-37.86-5.56,13.36,13.36,0,0,1-2.69-1.13,6.77,6.77,0,0,1,5.17-2.94l3.86-.6c2.55-.09,4.41.63,6.43,1.11a12.44,12.44,0,0,1,3.15.3c2.5-.25,3.75-1.82,5.08-3.24a3.75,3.75,0,0,0,1-2,5.13,5.13,0,0,1,3-3.67c.14-.07.54,0,.37.49a16.45,16.45,0,0,0-1,2.32,1.55,1.55,0,0,0,.34,1.32,10.31,10.31,0,0,1,1.07,3.26,5.94,5.94,0,0,0,4.52,2.29c1.28.05,2.32.47,3.51.61.32,0,.73.1.94-.1Z" stroke="#dbe0ee" stroke-width="0.07" fill="url(#radial-gradient-133)"/><path d="M120.5,54.57a6,6,0,0,1,.43-1.4,2.36,2.36,0,0,0,.34-2.19,2.79,2.79,0,0,0-.59-.87c-.67-.47-1.58-.82-2-1.58a6.61,6.61,0,0,1,.86-2.11c-1.23-.77-2.49-1.55-2.93-3a.38.38,0,0,0-.52-.25c-.33-.29.06-.7.12-1.07a2.26,2.26,0,0,1-1,.14c-.07,0-.2.17-.21.18-1.35.21-2.74.32-3.9.49a2.58,2.58,0,0,1-1.87.25.6.6,0,0,0-.59.18,10.7,10.7,0,0,0-1.81,4.09c0,.11-.15.55.2.37.27.19.32.56.63.67s.9,0,1.12,0,.58,0,.52.27a2.46,2.46,0,0,1-.55,1.22,3.46,3.46,0,0,0-.45,3.17,2.92,2.92,0,0,1,.12,2,2,2,0,0,0,0,1.45,13.39,13.39,0,0,0,1.08,1.65,4.85,4.85,0,0,0,2,2.24L116.3,62a.68.68,0,0,0,.65-.31c.41-.68.84-1.48,1.34-2.17A27.28,27.28,0,0,0,120.5,54.57Z" stroke="#dbe0ee" stroke-width="0.07" fill="url(#radial-gradient-134)"/><path d="M87.22,108.76a5.57,5.57,0,0,0-2.66-.14c-.06,0-.24.07-.3.1a4.37,4.37,0,0,0-2,2.15,1.84,1.84,0,0,0,2,1.17l6.34-.91c1.56.26,2.84.75,4.28,1.11a2.52,2.52,0,0,0,.92-.1c.27-.06.62-.28.58-.59a2.61,2.61,0,0,0-1.14-1.77c-1.25-.38-2.76-.56-4.08-1Z" stroke="#dbe0ee" stroke-width="0.07" fill="url(#radial-gradient-135)"/><path d="M123.19,57.7a1.35,1.35,0,0,1,.57-.13,9.65,9.65,0,0,1,2.69,1.14c.31.19.6.71.25,1a6.39,6.39,0,0,1-1.41.81h-1.68a4.18,4.18,0,0,1-1.88-1.11A4.46,4.46,0,0,1,123.19,57.7Z" stroke="#dbe0ee" stroke-width="0.07" fill="url(#radial-gradient-136)"/><path d="M215.54,119.86a105.63,105.63,0,0,0-1.84-12.17,158.9,158.9,0,0,0-5.39-16.39c-1.84-4-4.47-8.35-4.47-8.35l-1.22.25s.6,1.92-1.23,1.54-6.23-2.56-6.47-1.41a6.47,6.47,0,0,0,.37,3.2c.24.77,2,2.69.24,2.31s-4-.77-4-.77a5,5,0,0,0-4.16-2c-2.68.13-4.88-.26-5.25-1.66s-2-3.59-8.55-4S164,84.23,164,84.23s-1.95,2.94-3.91,3.2-3.91.13-4.76.38h0c-.77,1.29-1,3.22-1.16,5.11-.75,1.61-1.71,3-1.62,5.45-.31,2.11-.6,4.27-.92,6.27a30.88,30.88,0,0,0-.12,5.38,4.76,4.76,0,0,0,3,4.46l1.19,1.23c.66.89,1,2,1.67,2.92,1.23,1.7,2.41,3.46,5,3.69a13.43,13.43,0,0,0,5.29-.7,10.49,10.49,0,0,0,4.75-1.17c1.91-.57,3.34-1.64,5.74-1.66a2.42,2.42,0,0,1,1,.36c1.65.78,2.11,2.8,2.63,4.71a6.78,6.78,0,0,0,1.93,4.23c.89,2.06,1.18,4.69,1.76,7.07.35,1.43.92,3.62-.08,4.8a3.17,3.17,0,0,0-.69,2.37l2.42,5.8a12.86,12.86,0,0,1-.84,4.07,47.12,47.12,0,0,0,.95,7.61c-.11,1.8-.78,3-1.09,4.55a1.11,1.11,0,0,0,.53,1.32c3.13-.2,6.1-.64,9.39-.86a3.34,3.34,0,0,0,1.81-.6,9.29,9.29,0,0,1,3.24-4.3,8.26,8.26,0,0,1,1.75-3.47c.78-.85,1.86-1.39,2.65-2.25.56-1.89.73-4.12,1.43-5.76.77-1.8,7.65-8.27,7.65-8.27A78.92,78.92,0,0,0,215.54,119.86Z" stroke="#dbe0ee" stroke-width="0.07" fill="url(#radial-gradient-137)"/><path d="M145,48.24l3.15,1.21,1.57.6L152,51l.85-.6-1.57-1.33-3.63-3-2.41-.36-2.3-1.57-1.81-1,1.33-.12,3.14,1.57,4.83,1.69,2.42.25,1.45,1.21,1.69.12-.73,1L158,51.26l-1.57.73s-2.17-.73-2.05,0-3.63.6-3.63.6l-1.08-.84-.37-.85-1.81-.48-1.21.48,3.39,3.39L148.35,56l.36,1.93-.6,1.82-1,1.45-1.09,1.45a3.06,3.06,0,0,0-2.54,1c-1.21,1.2.61,1.2,3.63,2.05s6.28,6,6.28,6a24.63,24.63,0,0,1-3.5.6,32.47,32.47,0,0,0-4.94.47l-2.46,1.8c-.49.08,1.55,2.37,2.2,3.18a4.64,4.64,0,0,1,.74,2.45c.16,1.3.16,2.19.24,2.3.79,1.08,2.49.34,2.41,1.45.19.77,1,1.52,1.33,2,.12.22,2.19-.19,2.29-.12L155,87h0a.15.15,0,0,0,0-.07,3.75,3.75,0,0,1,3.06-2.31c1.71-.13,1.83-1,1.83-1l.37-2.69-.49-2.56L159,75.52l.61-2.3,1.47-1.67s-1.83-2.3.24-3.2,4.28-.89,4.28-1.66,2.32,1,3.05,1.28,3.55,2,5.62,2,5.5,2.18,5.5,2.18l2.32,2.55L181,71.94l.73-.39a7.43,7.43,0,0,0-2.44-1.79c-1.46-.64-5.25-1.92-5.25-1.92l-4-2.3-1.83-1.79a61.65,61.65,0,0,0,6,1.79c.73,0,6.6,3.71,6.6,3.71l2.93,2.18,2.08,2.17a21.16,21.16,0,0,0,2.81,2.18c.48.13,2.56.9,2.56.38a11.13,11.13,0,0,0-.85-2.3l-2.2-2-.86-2.3.86.51,1.83,2.18L192.23,74l1.71.51,1.1,1.28,1.1-1.41,1.47.13,1.71,3.07.59-.62a71.83,71.83,0,0,0-11-12.24c-.48-.42-.85-1.09-1.52-1.29l-6.54-5.68a26.12,26.12,0,0,0-2.69-2.15,87.09,87.09,0,0,0-39.8-15,.6.6,0,0,0-.6.37c-.12.27.13.5.14.57a8,8,0,0,1-.7,4.11.89.89,0,0,0,.09.6c.35.6.75,1.16,1.14,1.72a34.92,34.92,0,0,0,3.11,1.62C143.15,50.29,145,48.24,145,48.24Z" stroke="#dbe0ee" stroke-width="0.07" fill="url(#radial-gradient-138)"/><polygon points="181.01 74.73 178.45 74.99 178.71 76.4 182.16 77.29 182.42 76.27 181.01 74.73" fill="#90a6ce" stroke="#dbe0ee" stroke-width="0.07"/><polygon points="169.85 73.94 172.03 76.75 173.82 77.27 173.69 75.73 171.38 73.3 170.24 73.17 169.85 73.94" fill="#90a6ce" stroke="#dbe0ee" stroke-width="0.07"/><polygon points="167.47 70.11 169 72.03 169.9 72.03 168.49 69.86 167.47 70.11" fill="#90a6ce" stroke="#dbe0ee" stroke-width="0.07"/><polygon points="142.37 62.45 144.99 60.75 146.99 59.98 146.3 59.05 145.84 58.37 144.22 58.11 142.22 57.26 140.76 56.5 139.83 56.41 139.45 55.05 137.98 55.05 136.75 54.38 136.13 55.23 137.52 56.24 137.98 57.35 138.6 57.94 139.75 57.69 141.14 57.86 141.76 58.79 140.6 58.62 141.6 59.56 141.6 60.41 142.76 60.83 142.37 62.45" fill="#99add2" stroke="#dbe0ee" stroke-width="0.07"/><polygon points="138 58.21 139.16 58.95 140.22 59.77 140.63 60.68 138.91 61.74 137.35 61.66 137.35 60.35 136.53 59.94 136.28 59.28 136.77 59.12 136.77 58.46 138 58.21" fill="#99add2" stroke="#dbe0ee" stroke-width="0.07"/><polygon points="99.88 111.12 99.88 112.43 96.93 113.09 99.22 113.75 102.84 113.75 105.46 114.73 103.82 112.1 102.51 110.46 99.88 111.12" fill="#bcc8e1" stroke="#dbe0ee" stroke-width="0.07"/><path d="M47.7,154.94c5.21-.61,7.64-1.22,7.64-6.94V106.85c-4.86-6-6.25-6.25-7.37-6.25V98.43H66.28L96.4,135.5h.17V109.2c0-5.21-1-8.08-8.07-8.6V98.43h18.66v2.17c-6.25.79-6.77,2.78-6.77,7v51.12H98l-38.62-47h-.18v34.72c0,6.25,1.83,7.89,8.25,8.59v2.17H47.7Z" fill="#fff" stroke="#005699" stroke-width="0.98"/><path d="M148.55,115.88c-1.56-6.07-6.77-16.06-17-16.06-4.52,0-9.29,2.61-9.29,8.25,0,4.68,1.65,6.59,8.94,10.24L144,124.65a18,18,0,0,1,9.55,16c0,7.64-5.56,18.14-21.53,18.14-8.25,0-12.15-2.95-14.84-2.95-1.83,0-2.26,1.56-2.61,2.95H112V137.32h2.51c1.74,8.77,6.78,18.58,17.8,18.58,10.42,0,10.85-8.6,10.85-9.73,0-5.81-4.08-7.89-9.72-10.59l-5.82-2.77c-14.84-7.12-14.84-14.59-14.84-18.58,0-5.29,2.69-17.09,19.18-17.09,6.95,0,11,2.86,13.54,2.86,2,0,2.43-1.3,2.87-3H151v18.83Z" fill="#fff" stroke="#005699" stroke-width="0.98"/><path d="M158.61,98.43h49.2v17.45h-2.07c-1.91-9-4.26-14.49-19.19-14.49-4.68,0-6.25.34-6.25,4.08V125.6c10.77.17,12.07-6,13.29-12.93h2.16V142h-2.16c-1-7.12-2.35-13.46-13.29-13.46v20.23c0,5.73,3.48,5.9,9.55,6.16v2.17H158.61v-2.17c4.95-.52,7.63-.78,7.63-6.16v-42c0-5.72-3.56-5.89-7.63-6.16Z" fill="#fff" stroke="#005699" stroke-width="0.98"/><path d="M127.76,40.13A87.78,87.78,0,1,1,40,127.9a87.87,87.87,0,0,1,87.78-87.77m0-1.1a88.88,88.88,0,1,0,88.88,88.87A88.88,88.88,0,0,0,127.76,39Z" fill="#c4a006"/><circle cx="127.76" cy="127.9" r="87.92" transform="translate(-0.82 0.82) rotate(-0.37)" opacity="0.27" fill="url(#New_Gradient_Swatch_1)" style="mix-blend-mode:color-burn"/></g></g></g></svg>